M48
; DRILL file {KiCad (6.0.5)} date Tue Oct 11 14:38:58 2022
; FORMAT={-:-/ absolute / inch / decimal}
; #@! TF.CreationDate,2022-10-11T14:38:58+01:00
; #@! TF.GenerationSoftware,Kicad,Pcbnew,(6.0.5)
; #@! TF.FileFunction,Plated,1,2,PTH
FMAT,2
INCH
; #@! TA.AperFunction,Plated,PTH,ViaDrill
T1C0.0157
; #@! TA.AperFunction,Plated,PTH,ComponentDrill
T2C0.0394
%
G90
G05
T1
X-0.3149Y-0.0797
X-0.2756Y-0.0787
X-0.2756Y-0.1181
X-0.0394Y0.0787
X-0.0394Y-0.1969
X0.0005Y-0.1973
X0.0196Y-0.0791
X0.1181Y0.0787
X0.1771Y-0.1181
X0.2056Y-0.0875
X0.315Y-0.0787
T2
X-0.45Y-0.2994
X-0.35Y-0.2994
X-0.25Y-0.2994
X-0.15Y0.3024
X-0.15Y-0.2994
X-0.05Y0.3024
X-0.05Y-0.2994
X0.05Y0.3024
X0.05Y-0.2994
X0.15Y0.3024
X0.15Y-0.2994
X0.25Y-0.2994
X0.35Y-0.2994
X0.45Y-0.2994
T0
M30
