%TF.GenerationSoftware,KiCad,Pcbnew,(6.0.5)*%
%TF.CreationDate,2022-10-11T14:38:52+01:00*%
%TF.ProjectId,IBBC_0001,49424243-5f30-4303-9031-2e6b69636164,rev?*%
%TF.SameCoordinates,Original*%
%TF.FileFunction,Legend,Top*%
%TF.FilePolarity,Positive*%
%FSLAX46Y46*%
G04 Gerber Fmt 4.6, Leading zero omitted, Abs format (unit mm)*
G04 Created by KiCad (PCBNEW (6.0.5)) date 2022-10-11 14:38:52*
%MOMM*%
%LPD*%
G01*
G04 APERTURE LIST*
%ADD10C,0.150000*%
%ADD11C,0.120000*%
G04 APERTURE END LIST*
D10*
%TO.C,J4*%
X7924494Y-2333333D02*
X8638780Y-2333333D01*
X8781637Y-2380952D01*
X8876875Y-2476190D01*
X8924494Y-2619047D01*
X8924494Y-2714285D01*
X8257828Y-1428571D02*
X8924494Y-1428571D01*
X7876875Y-1666666D02*
X8591161Y-1904761D01*
X8591161Y-1285714D01*
%TO.C,J3*%
X-8731964Y-2333333D02*
X-8017678Y-2333333D01*
X-7874821Y-2380952D01*
X-7779583Y-2476190D01*
X-7731964Y-2619047D01*
X-7731964Y-2714285D01*
X-8731964Y-1952380D02*
X-8731964Y-1333333D01*
X-8351011Y-1666666D01*
X-8351011Y-1523809D01*
X-8303392Y-1428571D01*
X-8255773Y-1380952D01*
X-8160535Y-1333333D01*
X-7922440Y-1333333D01*
X-7827202Y-1380952D01*
X-7779583Y-1428571D01*
X-7731964Y-1523809D01*
X-7731964Y-1809523D01*
X-7779583Y-1904761D01*
X-7827202Y-1952380D01*
%TO.C,J1*%
X-14307619Y-7937343D02*
X-13593333Y-7937343D01*
X-13450476Y-7984962D01*
X-13355238Y-8080200D01*
X-13307619Y-8223057D01*
X-13307619Y-8318295D01*
X-13307619Y-6937343D02*
X-13307619Y-7508771D01*
X-13307619Y-7223057D02*
X-14307619Y-7223057D01*
X-14164761Y-7318295D01*
X-14069523Y-7413533D01*
X-14021904Y-7508771D01*
%TO.C,U2*%
X6125324Y-761904D02*
X6934848Y-761904D01*
X7030086Y-714285D01*
X7077705Y-666666D01*
X7125324Y-571428D01*
X7125324Y-380952D01*
X7077705Y-285714D01*
X7030086Y-238095D01*
X6934848Y-190476D01*
X6125324Y-190476D01*
X6220563Y238095D02*
X6172944Y285714D01*
X6125324Y380952D01*
X6125324Y619047D01*
X6172944Y714285D01*
X6220563Y761904D01*
X6315801Y809523D01*
X6411039Y809523D01*
X6553896Y761904D01*
X7125324Y190476D01*
X7125324Y809523D01*
%TO.C,U1*%
X-4580074Y-2102380D02*
X-4580074Y-2911904D01*
X-4532455Y-3007142D01*
X-4484836Y-3054761D01*
X-4389598Y-3102380D01*
X-4199122Y-3102380D01*
X-4103884Y-3054761D01*
X-4056265Y-3007142D01*
X-4008646Y-2911904D01*
X-4008646Y-2102380D01*
X-3008646Y-3102380D02*
X-3580074Y-3102380D01*
X-3294360Y-3102380D02*
X-3294360Y-2102380D01*
X-3389598Y-2245238D01*
X-3484836Y-2340476D01*
X-3580074Y-2388095D01*
%TO.C,J2*%
X5592380Y7348755D02*
X6306666Y7348755D01*
X6449523Y7301136D01*
X6544761Y7205898D01*
X6592380Y7063041D01*
X6592380Y6967803D01*
X5687619Y7777327D02*
X5640000Y7824946D01*
X5592380Y7920184D01*
X5592380Y8158279D01*
X5640000Y8253517D01*
X5687619Y8301136D01*
X5782857Y8348755D01*
X5878095Y8348755D01*
X6020952Y8301136D01*
X6592380Y7729708D01*
X6592380Y8348755D01*
%TO.C,H2*%
X-10761904Y8861425D02*
X-10761904Y9861425D01*
X-10761904Y9385234D02*
X-10190476Y9385234D01*
X-10190476Y8861425D02*
X-10190476Y9861425D01*
X-9761904Y9766186D02*
X-9714285Y9813806D01*
X-9619047Y9861425D01*
X-9380952Y9861425D01*
X-9285714Y9813806D01*
X-9238095Y9766186D01*
X-9190476Y9670948D01*
X-9190476Y9575710D01*
X-9238095Y9432853D01*
X-9809523Y8861425D01*
X-9190476Y8861425D01*
%TO.C,H1*%
X9238095Y8861425D02*
X9238095Y9861425D01*
X9238095Y9385234D02*
X9809523Y9385234D01*
X9809523Y8861425D02*
X9809523Y9861425D01*
X10809523Y8861425D02*
X10238095Y8861425D01*
X10523809Y8861425D02*
X10523809Y9861425D01*
X10428571Y9718567D01*
X10333333Y9623329D01*
X10238095Y9575710D01*
%TO.C,C3*%
X-2010010Y-1341666D02*
X-1962391Y-1389285D01*
X-1914772Y-1532142D01*
X-1914772Y-1627380D01*
X-1962391Y-1770238D01*
X-2057629Y-1865476D01*
X-2152867Y-1913095D01*
X-2343343Y-1960714D01*
X-2486200Y-1960714D01*
X-2676676Y-1913095D01*
X-2771914Y-1865476D01*
X-2867153Y-1770238D01*
X-2914772Y-1627380D01*
X-2914772Y-1532142D01*
X-2867153Y-1389285D01*
X-2819533Y-1341666D01*
X-2914772Y-1008333D02*
X-2914772Y-389285D01*
X-2533819Y-722619D01*
X-2533819Y-579761D01*
X-2486200Y-484523D01*
X-2438581Y-436904D01*
X-2343343Y-389285D01*
X-2105248Y-389285D01*
X-2010010Y-436904D01*
X-1962391Y-484523D01*
X-1914772Y-579761D01*
X-1914772Y-865476D01*
X-1962391Y-960714D01*
X-2010010Y-1008333D01*
%TO.C,C2*%
X-4166666Y562857D02*
X-4214285Y515238D01*
X-4357142Y467619D01*
X-4452380Y467619D01*
X-4595238Y515238D01*
X-4690476Y610476D01*
X-4738095Y705714D01*
X-4785714Y896190D01*
X-4785714Y1039047D01*
X-4738095Y1229523D01*
X-4690476Y1324761D01*
X-4595238Y1420000D01*
X-4452380Y1467619D01*
X-4357142Y1467619D01*
X-4214285Y1420000D01*
X-4166666Y1372380D01*
X-3785714Y1372380D02*
X-3738095Y1420000D01*
X-3642857Y1467619D01*
X-3404761Y1467619D01*
X-3309523Y1420000D01*
X-3261904Y1372380D01*
X-3214285Y1277142D01*
X-3214285Y1181904D01*
X-3261904Y1039047D01*
X-3833333Y467619D01*
X-3214285Y467619D01*
%TO.C,C1*%
X-4326763Y-1677142D02*
X-4374382Y-1724761D01*
X-4517239Y-1772380D01*
X-4612477Y-1772380D01*
X-4755335Y-1724761D01*
X-4850573Y-1629523D01*
X-4898192Y-1534285D01*
X-4945811Y-1343809D01*
X-4945811Y-1200952D01*
X-4898192Y-1010476D01*
X-4850573Y-915238D01*
X-4755335Y-820000D01*
X-4612477Y-772380D01*
X-4517239Y-772380D01*
X-4374382Y-820000D01*
X-4326763Y-867619D01*
X-3374382Y-1772380D02*
X-3945811Y-1772380D01*
X-3660096Y-1772380D02*
X-3660096Y-772380D01*
X-3755335Y-915238D01*
X-3850573Y-1010476D01*
X-3945811Y-1058095D01*
D11*
%TO.C,J4*%
X15137114Y-3940000D02*
X15137114Y-60000D01*
X13167114Y-5110000D02*
X10667114Y-5110000D01*
X13167114Y1110000D02*
X10667114Y1110000D01*
X10667114Y-5110000D02*
X10667114Y-4060000D01*
X10667114Y1110000D02*
X10667114Y60000D01*
X10667114Y-4060000D02*
X9677114Y-4060000D01*
%TO.C,J3*%
X-14849345Y-60000D02*
X-14849345Y-3940000D01*
X-12879345Y1110000D02*
X-10379345Y1110000D01*
X-12879345Y-5110000D02*
X-10379345Y-5110000D01*
X-10379345Y1110000D02*
X-10379345Y60000D01*
X-10379345Y-5110000D02*
X-10379345Y-4060000D01*
X-10379345Y60000D02*
X-9389345Y60000D01*
%TO.C,J1*%
X12760000Y-8934010D02*
X12760000Y-6274010D01*
X-10160000Y-8934010D02*
X-10160000Y-6274010D01*
X-12760000Y-8934010D02*
X-12760000Y-7604010D01*
X-10160000Y-8934010D02*
X12760000Y-8934010D01*
X-10160000Y-6274010D02*
X12760000Y-6274010D01*
X-11430000Y-8934010D02*
X-12760000Y-8934010D01*
%TO.C,U2*%
X612944Y-560000D02*
X612944Y-1610000D01*
X5832944Y-560000D02*
X5832944Y-1610000D01*
X612944Y560000D02*
X612944Y1610000D01*
%TO.C,U1*%
X-3818170Y1310000D02*
X-4618170Y1310000D01*
X-3818170Y-1810000D02*
X-4618170Y-1810000D01*
X-3818170Y-1810000D02*
X-2018170Y-1810000D01*
X-3818170Y1310000D02*
X-3018170Y1310000D01*
%TO.C,J2*%
X2540000Y9012089D02*
X-5140000Y9012089D01*
X5140000Y9012089D02*
X5140000Y7682089D01*
X2540000Y9012089D02*
X2540000Y6352089D01*
X-5140000Y9012089D02*
X-5140000Y6352089D01*
X3810000Y9012089D02*
X5140000Y9012089D01*
X2540000Y6352089D02*
X-5140000Y6352089D01*
%TO.C,C3*%
X-1447153Y-1315580D02*
X-1447153Y-1034420D01*
X-427153Y-1315580D02*
X-427153Y-1034420D01*
%TO.C,C2*%
X-3738748Y3335000D02*
X-4261252Y3335000D01*
X-3738748Y1865000D02*
X-4261252Y1865000D01*
%TO.C,C1*%
X-4421349Y-2265000D02*
X-3898845Y-2265000D01*
X-4421349Y-3735000D02*
X-3898845Y-3735000D01*
%TD*%
M02*
