%TF.GenerationSoftware,KiCad,Pcbnew,(6.0.5)*%
%TF.CreationDate,2022-10-07T13:32:43+01:00*%
%TF.ProjectId,IBBC_0001,49424243-5f30-4303-9031-2e6b69636164,rev?*%
%TF.SameCoordinates,Original*%
%TF.FileFunction,Copper,L2,Bot*%
%TF.FilePolarity,Positive*%
%FSLAX46Y46*%
G04 Gerber Fmt 4.6, Leading zero omitted, Abs format (unit mm)*
G04 Created by KiCad (PCBNEW (6.0.5)) date 2022-10-07 13:32:43*
%MOMM*%
%LPD*%
G01*
G04 APERTURE LIST*
%TA.AperFunction,ComponentPad*%
%ADD10R,1.700000X1.700000*%
%TD*%
%TA.AperFunction,ComponentPad*%
%ADD11O,1.700000X1.700000*%
%TD*%
%TA.AperFunction,ViaPad*%
%ADD12C,0.800000*%
%TD*%
%TA.AperFunction,Conductor*%
%ADD13C,0.250000*%
%TD*%
G04 APERTURE END LIST*
D10*
%TO.P,J4,1,Pin_1*%
%TO.N,GND*%
X7620000Y3800000D03*
D11*
%TO.P,J4,2,Pin_2*%
%TO.N,INT2*%
X7620000Y1260000D03*
%TO.P,J4,3,Pin_3*%
%TO.N,SDO*%
X7620000Y-1280000D03*
%TO.P,J4,4,Pin_4*%
%TO.N,CS*%
X7620000Y-3820000D03*
%TD*%
D10*
%TO.P,J3,1,Pin_1*%
%TO.N,Vin*%
X-6350000Y-6350000D03*
D11*
%TO.P,J3,2,Pin_2*%
%TO.N,3v3*%
X-6350000Y-3810000D03*
%TO.P,J3,3,Pin_3*%
%TO.N,GND*%
X-6350000Y-1270000D03*
%TO.P,J3,4,Pin_4*%
%TO.N,SCL*%
X-6350000Y1270000D03*
%TO.P,J3,5,Pin_5*%
%TO.N,SDA*%
X-6350000Y3810000D03*
%TO.P,J3,6,Pin_6*%
%TO.N,INT1*%
X-6350000Y6350000D03*
%TD*%
D10*
%TO.P,J2,1,Pin_1*%
%TO.N,GND*%
X-2540000Y-8875000D03*
D11*
%TO.P,J2,2,Pin_2*%
%TO.N,3v3*%
X-2540000Y-6335000D03*
%TO.P,J2,3,Pin_3*%
%TO.N,CS*%
X-2540000Y-3795000D03*
%TO.P,J2,4,Pin_4*%
%TO.N,INT1*%
X-2540000Y-1255000D03*
%TO.P,J2,5,Pin_5*%
%TO.N,INT2*%
X-2540000Y1285000D03*
%TO.P,J2,6,Pin_6*%
%TO.N,SDO*%
X-2540000Y3825000D03*
%TO.P,J2,7,Pin_7*%
%TO.N,SDA*%
X-2540000Y6365000D03*
%TO.P,J2,8,Pin_8*%
%TO.N,SCL*%
X-2540000Y8905000D03*
%TD*%
D12*
%TO.N,GND*%
X4900000Y-3095500D03*
%TO.N,CS*%
X2446841Y-3430530D03*
X657920Y-3343442D03*
%TO.N,GND*%
X412299Y1887701D03*
%TO.N,INT1*%
X5000000Y-1500000D03*
%TD*%
D13*
%TO.N,CS*%
X7620000Y-3820000D02*
X2836311Y-3820000D01*
X2836311Y-3820000D02*
X2446841Y-3430530D01*
X2243442Y-3343442D02*
X2330530Y-3430530D01*
X657920Y-3343442D02*
X2243442Y-3343442D01*
X2330530Y-3430530D02*
X2446841Y-3430530D01*
%TO.N,INT1*%
X-1500000Y-215000D02*
X-2540000Y-1255000D01*
X-1500000Y-14520D02*
X-1500000Y-215000D01*
X3514520Y-14520D02*
X-1500000Y-14520D01*
X5000000Y-1500000D02*
X3514520Y-14520D01*
%TO.N,SDO*%
X-600000Y1885000D02*
X-2540000Y3825000D01*
X-600000Y1500000D02*
X-600000Y1885000D01*
X5500000Y884520D02*
X15480Y884520D01*
X7049991Y2434511D02*
X5500000Y884520D01*
X8106499Y2434511D02*
X7049991Y2434511D01*
X15480Y884520D02*
X-600000Y1500000D01*
X8794511Y1746499D02*
X8106499Y2434511D01*
X8794511Y-105489D02*
X8794511Y1746499D01*
X7620000Y-1280000D02*
X8794511Y-105489D01*
%TO.N,INT2*%
X6795000Y435000D02*
X7620000Y1260000D01*
X-2540000Y1285000D02*
X-1690000Y435000D01*
X-1690000Y435000D02*
X6795000Y435000D01*
%TO.N,CS*%
X7595000Y-3795000D02*
X7620000Y-3820000D01*
%TO.N,INT2*%
X7595000Y1285000D02*
X7620000Y1260000D01*
%TO.N,SCL*%
X-3714511Y7730489D02*
X-2540000Y8905000D01*
X-3714511Y3905489D02*
X-3714511Y7730489D01*
X-6350000Y1270000D02*
X-3714511Y3905489D01*
%TD*%
%TA.AperFunction,Conductor*%
%TO.N,GND*%
G36*
X12933621Y12971498D02*
G01*
X12980114Y12917842D01*
X12991500Y12865500D01*
X12991500Y-12865500D01*
X12971498Y-12933621D01*
X12917842Y-12980114D01*
X12865500Y-12991500D01*
X-12865500Y-12991500D01*
X-12933621Y-12971498D01*
X-12980114Y-12917842D01*
X-12991500Y-12865500D01*
X-12991500Y-10132703D01*
X-12109257Y-10132703D01*
X-12071732Y-10417734D01*
X-11995871Y-10695036D01*
X-11883077Y-10959476D01*
X-11735439Y-11206161D01*
X-11555687Y-11430528D01*
X-11347149Y-11628423D01*
X-11113683Y-11796186D01*
X-11109888Y-11798195D01*
X-11109887Y-11798196D01*
X-11088131Y-11809715D01*
X-10859608Y-11930712D01*
X-10589627Y-12029511D01*
X-10308736Y-12090755D01*
X-10280159Y-12093004D01*
X-10085718Y-12108307D01*
X-10085709Y-12108307D01*
X-10083261Y-12108500D01*
X-9927729Y-12108500D01*
X-9925593Y-12108354D01*
X-9925582Y-12108354D01*
X-9717452Y-12094165D01*
X-9717446Y-12094164D01*
X-9713175Y-12093873D01*
X-9708980Y-12093004D01*
X-9708978Y-12093004D01*
X-9572416Y-12064723D01*
X-9431658Y-12035574D01*
X-9160657Y-11939607D01*
X-8905188Y-11807750D01*
X-8901687Y-11805289D01*
X-8901683Y-11805287D01*
X-8787583Y-11725096D01*
X-8669977Y-11642441D01*
X-8459378Y-11446740D01*
X-8277287Y-11224268D01*
X-8127073Y-10979142D01*
X-8011517Y-10715898D01*
X-7932756Y-10439406D01*
X-7892249Y-10154784D01*
X-7892155Y-10136951D01*
X-7890765Y-9871583D01*
X-7890765Y-9871576D01*
X-7890743Y-9867297D01*
X-7893993Y-9842606D01*
X-7903596Y-9769669D01*
X-3897999Y-9769669D01*
X-3897629Y-9776490D01*
X-3892105Y-9827352D01*
X-3888479Y-9842604D01*
X-3843324Y-9963054D01*
X-3834786Y-9978649D01*
X-3758285Y-10080724D01*
X-3745724Y-10093285D01*
X-3643649Y-10169786D01*
X-3628054Y-10178324D01*
X-3507606Y-10223478D01*
X-3492351Y-10227105D01*
X-3441486Y-10232631D01*
X-3434672Y-10233000D01*
X-2812115Y-10233000D01*
X-2796876Y-10228525D01*
X-2795671Y-10227135D01*
X-2794000Y-10219452D01*
X-2794000Y-10214884D01*
X-2286000Y-10214884D01*
X-2281525Y-10230123D01*
X-2280135Y-10231328D01*
X-2272452Y-10232999D01*
X-1645331Y-10232999D01*
X-1638510Y-10232629D01*
X-1587648Y-10227105D01*
X-1572396Y-10223479D01*
X-1451946Y-10178324D01*
X-1436351Y-10169786D01*
X-1386871Y-10132703D01*
X7890743Y-10132703D01*
X7928268Y-10417734D01*
X8004129Y-10695036D01*
X8116923Y-10959476D01*
X8264561Y-11206161D01*
X8444313Y-11430528D01*
X8652851Y-11628423D01*
X8886317Y-11796186D01*
X8890112Y-11798195D01*
X8890113Y-11798196D01*
X8911869Y-11809715D01*
X9140392Y-11930712D01*
X9410373Y-12029511D01*
X9691264Y-12090755D01*
X9719841Y-12093004D01*
X9914282Y-12108307D01*
X9914291Y-12108307D01*
X9916739Y-12108500D01*
X10072271Y-12108500D01*
X10074407Y-12108354D01*
X10074418Y-12108354D01*
X10282548Y-12094165D01*
X10282554Y-12094164D01*
X10286825Y-12093873D01*
X10291020Y-12093004D01*
X10291022Y-12093004D01*
X10427584Y-12064723D01*
X10568342Y-12035574D01*
X10839343Y-11939607D01*
X11094812Y-11807750D01*
X11098313Y-11805289D01*
X11098317Y-11805287D01*
X11212417Y-11725096D01*
X11330023Y-11642441D01*
X11540622Y-11446740D01*
X11722713Y-11224268D01*
X11872927Y-10979142D01*
X11988483Y-10715898D01*
X12067244Y-10439406D01*
X12107751Y-10154784D01*
X12107845Y-10136951D01*
X12109235Y-9871583D01*
X12109235Y-9871576D01*
X12109257Y-9867297D01*
X12106007Y-9842606D01*
X12072292Y-9586522D01*
X12071732Y-9582266D01*
X11995871Y-9304964D01*
X11921528Y-9130671D01*
X11884763Y-9044476D01*
X11884761Y-9044472D01*
X11883077Y-9040524D01*
X11735439Y-8793839D01*
X11555687Y-8569472D01*
X11347149Y-8371577D01*
X11113683Y-8203814D01*
X11091843Y-8192250D01*
X11068654Y-8179972D01*
X10859608Y-8069288D01*
X10616522Y-7980331D01*
X10593658Y-7971964D01*
X10593656Y-7971963D01*
X10589627Y-7970489D01*
X10308736Y-7909245D01*
X10277685Y-7906801D01*
X10085718Y-7891693D01*
X10085709Y-7891693D01*
X10083261Y-7891500D01*
X9927729Y-7891500D01*
X9925593Y-7891646D01*
X9925582Y-7891646D01*
X9717452Y-7905835D01*
X9717446Y-7905836D01*
X9713175Y-7906127D01*
X9708980Y-7906996D01*
X9708978Y-7906996D01*
X9572416Y-7935277D01*
X9431658Y-7964426D01*
X9160657Y-8060393D01*
X8905188Y-8192250D01*
X8901687Y-8194711D01*
X8901683Y-8194713D01*
X8891594Y-8201804D01*
X8669977Y-8357559D01*
X8459378Y-8553260D01*
X8277287Y-8775732D01*
X8127073Y-9020858D01*
X8125347Y-9024791D01*
X8125346Y-9024792D01*
X8077638Y-9133475D01*
X8011517Y-9284102D01*
X7932756Y-9560594D01*
X7929672Y-9582266D01*
X7894792Y-9827351D01*
X7892249Y-9845216D01*
X7892227Y-9849505D01*
X7892226Y-9849512D01*
X7891550Y-9978649D01*
X7890743Y-10132703D01*
X-1386871Y-10132703D01*
X-1334276Y-10093285D01*
X-1321715Y-10080724D01*
X-1245214Y-9978649D01*
X-1236676Y-9963054D01*
X-1191522Y-9842606D01*
X-1187895Y-9827351D01*
X-1182369Y-9776486D01*
X-1182000Y-9769672D01*
X-1182000Y-9147115D01*
X-1186475Y-9131876D01*
X-1187865Y-9130671D01*
X-1195548Y-9129000D01*
X-2267885Y-9129000D01*
X-2283124Y-9133475D01*
X-2284329Y-9134865D01*
X-2286000Y-9142548D01*
X-2286000Y-10214884D01*
X-2794000Y-10214884D01*
X-2794000Y-9147115D01*
X-2798475Y-9131876D01*
X-2799865Y-9130671D01*
X-2807548Y-9129000D01*
X-3879884Y-9129000D01*
X-3895123Y-9133475D01*
X-3896328Y-9134865D01*
X-3897999Y-9142548D01*
X-3897999Y-9769669D01*
X-7903596Y-9769669D01*
X-7927708Y-9586522D01*
X-7928268Y-9582266D01*
X-8004129Y-9304964D01*
X-8078472Y-9130671D01*
X-8115237Y-9044476D01*
X-8115239Y-9044472D01*
X-8116923Y-9040524D01*
X-8264561Y-8793839D01*
X-8444313Y-8569472D01*
X-8652851Y-8371577D01*
X-8886317Y-8203814D01*
X-8908157Y-8192250D01*
X-8931346Y-8179972D01*
X-9140392Y-8069288D01*
X-9383478Y-7980331D01*
X-9406342Y-7971964D01*
X-9406344Y-7971963D01*
X-9410373Y-7970489D01*
X-9691264Y-7909245D01*
X-9722315Y-7906801D01*
X-9914282Y-7891693D01*
X-9914291Y-7891693D01*
X-9916739Y-7891500D01*
X-10072271Y-7891500D01*
X-10074407Y-7891646D01*
X-10074418Y-7891646D01*
X-10282548Y-7905835D01*
X-10282554Y-7905836D01*
X-10286825Y-7906127D01*
X-10291020Y-7906996D01*
X-10291022Y-7906996D01*
X-10427584Y-7935277D01*
X-10568342Y-7964426D01*
X-10839343Y-8060393D01*
X-11094812Y-8192250D01*
X-11098313Y-8194711D01*
X-11098317Y-8194713D01*
X-11108406Y-8201804D01*
X-11330023Y-8357559D01*
X-11540622Y-8553260D01*
X-11722713Y-8775732D01*
X-11872927Y-9020858D01*
X-11874653Y-9024791D01*
X-11874654Y-9024792D01*
X-11922362Y-9133475D01*
X-11988483Y-9284102D01*
X-12067244Y-9560594D01*
X-12070328Y-9582266D01*
X-12105208Y-9827351D01*
X-12107751Y-9845216D01*
X-12107773Y-9849505D01*
X-12107774Y-9849512D01*
X-12108450Y-9978649D01*
X-12109257Y-10132703D01*
X-12991500Y-10132703D01*
X-12991500Y-3776695D01*
X-7712749Y-3776695D01*
X-7712452Y-3781848D01*
X-7712452Y-3781851D01*
X-7706413Y-3886590D01*
X-7699890Y-3999715D01*
X-7698753Y-4004761D01*
X-7698752Y-4004767D01*
X-7682261Y-4077939D01*
X-7650778Y-4217639D01*
X-7566734Y-4424616D01*
X-7450013Y-4615088D01*
X-7303750Y-4783938D01*
X-7299770Y-4787242D01*
X-7295019Y-4791187D01*
X-7255384Y-4850090D01*
X-7253887Y-4921071D01*
X-7291003Y-4981593D01*
X-7331275Y-5006112D01*
X-7427249Y-5042091D01*
X-7446705Y-5049385D01*
X-7563261Y-5136739D01*
X-7650615Y-5253295D01*
X-7701745Y-5389684D01*
X-7708500Y-5451866D01*
X-7708500Y-7248134D01*
X-7701745Y-7310316D01*
X-7650615Y-7446705D01*
X-7563261Y-7563261D01*
X-7446705Y-7650615D01*
X-7310316Y-7701745D01*
X-7248134Y-7708500D01*
X-5451866Y-7708500D01*
X-5389684Y-7701745D01*
X-5253295Y-7650615D01*
X-5136739Y-7563261D01*
X-5049385Y-7446705D01*
X-4998255Y-7310316D01*
X-4991500Y-7248134D01*
X-4991500Y-5451866D01*
X-4998255Y-5389684D01*
X-5049385Y-5253295D01*
X-5136739Y-5136739D01*
X-5253295Y-5049385D01*
X-5265868Y-5044672D01*
X-5371797Y-5004960D01*
X-5428561Y-4962318D01*
X-5453261Y-4895756D01*
X-5438053Y-4826408D01*
X-5416507Y-4797727D01*
X-5387617Y-4768938D01*
X-5311904Y-4693489D01*
X-5298109Y-4674292D01*
X-5184565Y-4516277D01*
X-5181547Y-4512077D01*
X-5174133Y-4497077D01*
X-5084864Y-4316453D01*
X-5084863Y-4316451D01*
X-5082570Y-4311811D01*
X-5017630Y-4098069D01*
X-4988471Y-3876590D01*
X-4988389Y-3873240D01*
X-4986926Y-3813365D01*
X-4986926Y-3813361D01*
X-4986844Y-3810000D01*
X-5005148Y-3587361D01*
X-5059569Y-3370702D01*
X-5148646Y-3165840D01*
X-5260709Y-2992617D01*
X-5267178Y-2982617D01*
X-5267180Y-2982614D01*
X-5269986Y-2978277D01*
X-5420330Y-2813051D01*
X-5424381Y-2809852D01*
X-5424385Y-2809848D01*
X-5591586Y-2677800D01*
X-5591590Y-2677798D01*
X-5595641Y-2674598D01*
X-5604899Y-2669487D01*
X-5620830Y-2660693D01*
X-5637431Y-2651529D01*
X-5687402Y-2601097D01*
X-5702174Y-2531654D01*
X-5677058Y-2465248D01*
X-5649706Y-2438641D01*
X-5474672Y-2313792D01*
X-5466800Y-2307139D01*
X-5315948Y-2156812D01*
X-5309270Y-2148965D01*
X-5184997Y-1976020D01*
X-5179687Y-1967183D01*
X-5085330Y-1776267D01*
X-5081531Y-1766672D01*
X-5019623Y-1562910D01*
X-5017445Y-1552837D01*
X-5016014Y-1541962D01*
X-5018225Y-1527778D01*
X-5031383Y-1524000D01*
X-7666775Y-1524000D01*
X-7680306Y-1527973D01*
X-7681743Y-1537966D01*
X-7651435Y-1672446D01*
X-7648355Y-1682275D01*
X-7568230Y-1879603D01*
X-7563587Y-1888794D01*
X-7452306Y-2070388D01*
X-7446223Y-2078699D01*
X-7306787Y-2239667D01*
X-7299420Y-2246883D01*
X-7135566Y-2382916D01*
X-7127119Y-2388831D01*
X-7058031Y-2429203D01*
X-7009307Y-2480842D01*
X-6996236Y-2550625D01*
X-7022967Y-2616396D01*
X-7063416Y-2649752D01*
X-7076393Y-2656507D01*
X-7080526Y-2659610D01*
X-7080529Y-2659612D01*
X-7250900Y-2787530D01*
X-7255035Y-2790635D01*
X-7258607Y-2794373D01*
X-7391465Y-2933401D01*
X-7409371Y-2952138D01*
X-7412285Y-2956410D01*
X-7412286Y-2956411D01*
X-7419930Y-2967617D01*
X-7535257Y-3136680D01*
X-7582284Y-3237992D01*
X-7624666Y-3329297D01*
X-7629312Y-3339305D01*
X-7689011Y-3554570D01*
X-7712749Y-3776695D01*
X-12991500Y-3776695D01*
X-12991500Y1303305D01*
X-7712749Y1303305D01*
X-7712452Y1298152D01*
X-7712452Y1298149D01*
X-7704014Y1151808D01*
X-7699890Y1080285D01*
X-7698753Y1075239D01*
X-7698752Y1075233D01*
X-7678881Y987061D01*
X-7650778Y862361D01*
X-7566734Y655384D01*
X-7450013Y464912D01*
X-7303750Y296062D01*
X-7131874Y153368D01*
X-7058045Y110226D01*
X-7009321Y58588D01*
X-6996250Y-11195D01*
X-7022981Y-76967D01*
X-7063438Y-110327D01*
X-7071543Y-114546D01*
X-7080262Y-120036D01*
X-7250567Y-247905D01*
X-7258274Y-254748D01*
X-7405410Y-408717D01*
X-7411896Y-416727D01*
X-7531902Y-592649D01*
X-7537000Y-601623D01*
X-7626662Y-794783D01*
X-7630225Y-804470D01*
X-7685611Y-1004183D01*
X-7684088Y-1012607D01*
X-7671708Y-1016000D01*
X-5031656Y-1016000D01*
X-5018125Y-1012027D01*
X-5016820Y-1002947D01*
X-5058786Y-835875D01*
X-5062106Y-826124D01*
X-5147028Y-630814D01*
X-5151895Y-621739D01*
X-5267574Y-442926D01*
X-5273864Y-434757D01*
X-5417194Y-277240D01*
X-5424727Y-270215D01*
X-5591861Y-138222D01*
X-5600444Y-132520D01*
X-5637398Y-112120D01*
X-5687369Y-61687D01*
X-5702141Y7755D01*
X-5677025Y74161D01*
X-5649673Y100768D01*
X-5614966Y125524D01*
X-5470140Y228827D01*
X-5311904Y386511D01*
X-5252406Y469311D01*
X-5184565Y563723D01*
X-5181547Y567923D01*
X-5133084Y665980D01*
X-5084864Y763547D01*
X-5084863Y763549D01*
X-5082570Y768189D01*
X-5017630Y981931D01*
X-4988471Y1203410D01*
X-4988389Y1206760D01*
X-4986926Y1266635D01*
X-4986926Y1266639D01*
X-4986844Y1270000D01*
X-5005148Y1492639D01*
X-5033179Y1604235D01*
X-5030375Y1675177D01*
X-5000070Y1724026D01*
X-3765509Y2958587D01*
X-3703197Y2992613D01*
X-3632382Y2987548D01*
X-3581177Y2951990D01*
X-3497135Y2854969D01*
X-3497131Y2854965D01*
X-3493750Y2851062D01*
X-3321874Y2708368D01*
X-3315044Y2704377D01*
X-3248555Y2665524D01*
X-3199831Y2613886D01*
X-3186760Y2544103D01*
X-3213491Y2478331D01*
X-3253945Y2444973D01*
X-3266393Y2438493D01*
X-3270526Y2435390D01*
X-3270529Y2435388D01*
X-3414675Y2327160D01*
X-3445035Y2304365D01*
X-3448607Y2300627D01*
X-3586785Y2156032D01*
X-3599371Y2142862D01*
X-3602283Y2138593D01*
X-3602286Y2138589D01*
X-3632231Y2094691D01*
X-3725257Y1958320D01*
X-3755584Y1892986D01*
X-3816197Y1762405D01*
X-3819312Y1755695D01*
X-3879011Y1540430D01*
X-3902749Y1318305D01*
X-3902452Y1313152D01*
X-3902452Y1313149D01*
X-3896124Y1203410D01*
X-3889890Y1095285D01*
X-3888753Y1090239D01*
X-3888752Y1090233D01*
X-3886510Y1080285D01*
X-3840778Y877361D01*
X-3756734Y670384D01*
X-3640013Y479912D01*
X-3493750Y311062D01*
X-3321874Y168368D01*
X-3301860Y156673D01*
X-3248555Y125524D01*
X-3199831Y73886D01*
X-3186760Y4103D01*
X-3213491Y-61669D01*
X-3253945Y-95027D01*
X-3266393Y-101507D01*
X-3270526Y-104610D01*
X-3270529Y-104612D01*
X-3435331Y-228349D01*
X-3445035Y-235635D01*
X-3478080Y-270215D01*
X-3592513Y-389962D01*
X-3599371Y-397138D01*
X-3602285Y-401410D01*
X-3602286Y-401411D01*
X-3633067Y-446534D01*
X-3725257Y-581680D01*
X-3747609Y-629834D01*
X-3786103Y-712763D01*
X-3819312Y-784305D01*
X-3879011Y-999570D01*
X-3902749Y-1221695D01*
X-3902452Y-1226848D01*
X-3902452Y-1226851D01*
X-3890188Y-1439547D01*
X-3889890Y-1444715D01*
X-3888753Y-1449761D01*
X-3888752Y-1449767D01*
X-3874930Y-1511096D01*
X-3840778Y-1662639D01*
X-3756734Y-1869616D01*
X-3640013Y-2060088D01*
X-3493750Y-2228938D01*
X-3387041Y-2317529D01*
X-3328526Y-2366109D01*
X-3321874Y-2371632D01*
X-3292441Y-2388831D01*
X-3248555Y-2414476D01*
X-3199831Y-2466114D01*
X-3186760Y-2535897D01*
X-3213491Y-2601669D01*
X-3253945Y-2635027D01*
X-3266393Y-2641507D01*
X-3270526Y-2644610D01*
X-3270529Y-2644612D01*
X-3440900Y-2772530D01*
X-3445035Y-2775635D01*
X-3599371Y-2937138D01*
X-3602285Y-2941410D01*
X-3602286Y-2941411D01*
X-3624828Y-2974457D01*
X-3725257Y-3121680D01*
X-3819312Y-3324305D01*
X-3879011Y-3539570D01*
X-3902749Y-3761695D01*
X-3902452Y-3766848D01*
X-3902452Y-3766851D01*
X-3890338Y-3976942D01*
X-3889890Y-3984715D01*
X-3888753Y-3989761D01*
X-3888752Y-3989767D01*
X-3881418Y-4022308D01*
X-3840778Y-4202639D01*
X-3756734Y-4409616D01*
X-3640013Y-4600088D01*
X-3493750Y-4768938D01*
X-3321874Y-4911632D01*
X-3305721Y-4921071D01*
X-3248555Y-4954476D01*
X-3199831Y-5006114D01*
X-3186760Y-5075897D01*
X-3213491Y-5141669D01*
X-3253945Y-5175027D01*
X-3266393Y-5181507D01*
X-3270526Y-5184610D01*
X-3270529Y-5184612D01*
X-3440900Y-5312530D01*
X-3445035Y-5315635D01*
X-3448607Y-5319373D01*
X-3575220Y-5451866D01*
X-3599371Y-5477138D01*
X-3725257Y-5661680D01*
X-3819312Y-5864305D01*
X-3879011Y-6079570D01*
X-3902749Y-6301695D01*
X-3902452Y-6306848D01*
X-3902452Y-6306851D01*
X-3896989Y-6401590D01*
X-3889890Y-6524715D01*
X-3888753Y-6529761D01*
X-3888752Y-6529767D01*
X-3868881Y-6617939D01*
X-3840778Y-6742639D01*
X-3756734Y-6949616D01*
X-3640013Y-7140088D01*
X-3493750Y-7308938D01*
X-3489775Y-7312238D01*
X-3489769Y-7312244D01*
X-3484575Y-7316556D01*
X-3444941Y-7375460D01*
X-3443445Y-7446441D01*
X-3480561Y-7506962D01*
X-3520832Y-7531480D01*
X-3628054Y-7571676D01*
X-3643649Y-7580214D01*
X-3745724Y-7656715D01*
X-3758285Y-7669276D01*
X-3834786Y-7771351D01*
X-3843324Y-7786946D01*
X-3888478Y-7907394D01*
X-3892105Y-7922649D01*
X-3897631Y-7973514D01*
X-3898000Y-7980328D01*
X-3898000Y-8602885D01*
X-3893525Y-8618124D01*
X-3892135Y-8619329D01*
X-3884452Y-8621000D01*
X-1200116Y-8621000D01*
X-1184877Y-8616525D01*
X-1183672Y-8615135D01*
X-1182001Y-8607452D01*
X-1182001Y-7980331D01*
X-1182371Y-7973510D01*
X-1187895Y-7922648D01*
X-1191521Y-7907396D01*
X-1236676Y-7786946D01*
X-1245214Y-7771351D01*
X-1321715Y-7669276D01*
X-1334276Y-7656715D01*
X-1436351Y-7580214D01*
X-1451946Y-7571676D01*
X-1562187Y-7530348D01*
X-1618951Y-7487706D01*
X-1643651Y-7421145D01*
X-1628443Y-7351796D01*
X-1606896Y-7323115D01*
X-1505570Y-7222144D01*
X-1505560Y-7222132D01*
X-1501904Y-7218489D01*
X-1442406Y-7135689D01*
X-1374565Y-7041277D01*
X-1371547Y-7037077D01*
X-1272570Y-6836811D01*
X-1207630Y-6623069D01*
X-1178471Y-6401590D01*
X-1176844Y-6335000D01*
X-1195148Y-6112361D01*
X-1249569Y-5895702D01*
X-1338646Y-5690840D01*
X-1459986Y-5503277D01*
X-1610330Y-5338051D01*
X-1614381Y-5334852D01*
X-1614385Y-5334848D01*
X-1781586Y-5202800D01*
X-1781590Y-5202798D01*
X-1785641Y-5199598D01*
X-1826947Y-5176796D01*
X-1876916Y-5126364D01*
X-1891688Y-5056921D01*
X-1866572Y-4990516D01*
X-1839220Y-4963909D01*
X-1779163Y-4921071D01*
X-1660140Y-4836173D01*
X-1614996Y-4791187D01*
X-1505565Y-4682137D01*
X-1501904Y-4678489D01*
X-1466335Y-4628990D01*
X-1374565Y-4501277D01*
X-1371547Y-4497077D01*
X-1359895Y-4473502D01*
X-1274864Y-4301453D01*
X-1274863Y-4301451D01*
X-1272570Y-4296811D01*
X-1222095Y-4130679D01*
X-1209135Y-4088023D01*
X-1209135Y-4088021D01*
X-1207630Y-4083069D01*
X-1178471Y-3861590D01*
X-1177210Y-3810000D01*
X-1176926Y-3798365D01*
X-1176926Y-3798361D01*
X-1176844Y-3795000D01*
X-1195148Y-3572361D01*
X-1249569Y-3355702D01*
X-1338646Y-3150840D01*
X-1441005Y-2992617D01*
X-1457178Y-2967617D01*
X-1457180Y-2967614D01*
X-1459986Y-2963277D01*
X-1610330Y-2798051D01*
X-1614381Y-2794852D01*
X-1614385Y-2794848D01*
X-1781586Y-2662800D01*
X-1781590Y-2662798D01*
X-1785641Y-2659598D01*
X-1826947Y-2636796D01*
X-1876916Y-2586364D01*
X-1891688Y-2516921D01*
X-1866572Y-2450516D01*
X-1839220Y-2423909D01*
X-1795397Y-2392650D01*
X-1660140Y-2296173D01*
X-1651172Y-2287237D01*
X-1505565Y-2142137D01*
X-1501904Y-2138489D01*
X-1466335Y-2088990D01*
X-1374565Y-1961277D01*
X-1371547Y-1957077D01*
X-1342853Y-1899020D01*
X-1274864Y-1761453D01*
X-1274863Y-1761451D01*
X-1272570Y-1756811D01*
X-1216731Y-1573023D01*
X-1209135Y-1548023D01*
X-1209135Y-1548021D01*
X-1207630Y-1543069D01*
X-1178471Y-1321590D01*
X-1178350Y-1316635D01*
X-1176926Y-1258365D01*
X-1176926Y-1258361D01*
X-1176844Y-1255000D01*
X-1195148Y-1032361D01*
X-1223179Y-920766D01*
X-1220375Y-849825D01*
X-1190070Y-800975D01*
X-1107747Y-718652D01*
X-1099461Y-711112D01*
X-1092982Y-707000D01*
X-1074921Y-687767D01*
X-1013708Y-651802D01*
X-983071Y-648020D01*
X3199925Y-648020D01*
X3268046Y-668022D01*
X3289021Y-684925D01*
X4052879Y-1448784D01*
X4086904Y-1511096D01*
X4089093Y-1524709D01*
X4105654Y-1682275D01*
X4106458Y-1689928D01*
X4165473Y-1871556D01*
X4260960Y-2036944D01*
X4265378Y-2041851D01*
X4265379Y-2041852D01*
X4378186Y-2167137D01*
X4388747Y-2178866D01*
X4543248Y-2291118D01*
X4549276Y-2293802D01*
X4549278Y-2293803D01*
X4711681Y-2366109D01*
X4717712Y-2368794D01*
X4811113Y-2388647D01*
X4898056Y-2407128D01*
X4898061Y-2407128D01*
X4904513Y-2408500D01*
X5095487Y-2408500D01*
X5101939Y-2407128D01*
X5101944Y-2407128D01*
X5188887Y-2388647D01*
X5282288Y-2368794D01*
X5288319Y-2366109D01*
X5450722Y-2293803D01*
X5450724Y-2293802D01*
X5456752Y-2291118D01*
X5611253Y-2178866D01*
X5621814Y-2167137D01*
X5734621Y-2041852D01*
X5734622Y-2041851D01*
X5739040Y-2036944D01*
X5834527Y-1871556D01*
X5893542Y-1689928D01*
X5894347Y-1682275D01*
X5912814Y-1506565D01*
X5913504Y-1500000D01*
X5897028Y-1343240D01*
X5894232Y-1316635D01*
X5894232Y-1316633D01*
X5893542Y-1310072D01*
X5834527Y-1128444D01*
X5739040Y-963056D01*
X5637087Y-849825D01*
X5615675Y-826045D01*
X5615674Y-826044D01*
X5611253Y-821134D01*
X5456752Y-708882D01*
X5450724Y-706198D01*
X5450722Y-706197D01*
X5288319Y-633891D01*
X5288318Y-633891D01*
X5282288Y-631206D01*
X5188888Y-611353D01*
X5101944Y-592872D01*
X5101939Y-592872D01*
X5095487Y-591500D01*
X5039595Y-591500D01*
X4971474Y-571498D01*
X4950500Y-554595D01*
X4809500Y-413595D01*
X4775474Y-351283D01*
X4780539Y-280468D01*
X4823086Y-223632D01*
X4889606Y-198821D01*
X4898595Y-198500D01*
X6479652Y-198500D01*
X6547773Y-218502D01*
X6594266Y-272158D01*
X6604370Y-342432D01*
X6570747Y-411550D01*
X6560629Y-422138D01*
X6557715Y-426410D01*
X6557714Y-426411D01*
X6495663Y-517375D01*
X6434743Y-606680D01*
X6422112Y-633891D01*
X6344555Y-800975D01*
X6340688Y-809305D01*
X6280989Y-1024570D01*
X6257251Y-1246695D01*
X6257548Y-1251848D01*
X6257548Y-1251851D01*
X6268903Y-1448784D01*
X6270110Y-1469715D01*
X6271247Y-1474761D01*
X6271248Y-1474767D01*
X6291113Y-1562910D01*
X6319222Y-1687639D01*
X6403266Y-1894616D01*
X6519987Y-2085088D01*
X6666250Y-2253938D01*
X6838126Y-2396632D01*
X6884805Y-2423909D01*
X6911445Y-2439476D01*
X6960169Y-2491114D01*
X6973240Y-2560897D01*
X6946509Y-2626669D01*
X6906055Y-2660027D01*
X6893607Y-2666507D01*
X6889474Y-2669610D01*
X6889471Y-2669612D01*
X6719100Y-2797530D01*
X6714965Y-2800635D01*
X6696605Y-2819848D01*
X6584520Y-2937138D01*
X6560629Y-2962138D01*
X6557715Y-2966410D01*
X6557714Y-2966411D01*
X6445095Y-3131504D01*
X6390184Y-3176507D01*
X6341007Y-3186500D01*
X3414348Y-3186500D01*
X3346227Y-3166498D01*
X3299734Y-3112842D01*
X3294515Y-3099436D01*
X3283410Y-3065259D01*
X3281368Y-3058974D01*
X3185881Y-2893586D01*
X3058094Y-2751664D01*
X2920271Y-2651529D01*
X2908935Y-2643293D01*
X2908934Y-2643292D01*
X2903593Y-2639412D01*
X2897565Y-2636728D01*
X2897563Y-2636727D01*
X2735160Y-2564421D01*
X2735159Y-2564421D01*
X2729129Y-2561736D01*
X2635728Y-2541883D01*
X2548785Y-2523402D01*
X2548780Y-2523402D01*
X2542328Y-2522030D01*
X2351354Y-2522030D01*
X2344902Y-2523402D01*
X2344897Y-2523402D01*
X2257954Y-2541883D01*
X2164553Y-2561736D01*
X2158523Y-2564421D01*
X2158522Y-2564421D01*
X1996119Y-2636727D01*
X1996117Y-2636728D01*
X1990089Y-2639412D01*
X1984748Y-2643292D01*
X1984747Y-2643293D01*
X1926134Y-2685878D01*
X1852073Y-2709942D01*
X1366120Y-2709942D01*
X1297999Y-2689940D01*
X1278773Y-2673599D01*
X1278500Y-2673902D01*
X1273588Y-2669479D01*
X1269173Y-2664576D01*
X1148137Y-2576638D01*
X1120014Y-2556205D01*
X1120013Y-2556204D01*
X1114672Y-2552324D01*
X1108644Y-2549640D01*
X1108642Y-2549639D01*
X946239Y-2477333D01*
X946238Y-2477333D01*
X940208Y-2474648D01*
X837864Y-2452894D01*
X759864Y-2436314D01*
X759859Y-2436314D01*
X753407Y-2434942D01*
X562433Y-2434942D01*
X555981Y-2436314D01*
X555976Y-2436314D01*
X477976Y-2452894D01*
X375632Y-2474648D01*
X369602Y-2477333D01*
X369601Y-2477333D01*
X207198Y-2549639D01*
X207196Y-2549640D01*
X201168Y-2552324D01*
X195827Y-2556204D01*
X195826Y-2556205D01*
X167703Y-2576638D01*
X46667Y-2664576D01*
X42246Y-2669486D01*
X42245Y-2669487D01*
X27487Y-2685878D01*
X-81120Y-2806498D01*
X-90677Y-2823051D01*
X-168821Y-2958401D01*
X-176607Y-2971886D01*
X-235622Y-3153514D01*
X-236312Y-3160075D01*
X-236312Y-3160077D01*
X-236987Y-3166498D01*
X-255584Y-3343442D01*
X-235622Y-3533370D01*
X-176607Y-3714998D01*
X-81120Y-3880386D01*
X-76702Y-3885293D01*
X-76701Y-3885294D01*
X5819Y-3976942D01*
X46667Y-4022308D01*
X201168Y-4134560D01*
X207196Y-4137244D01*
X207198Y-4137245D01*
X364826Y-4207425D01*
X375632Y-4212236D01*
X469032Y-4232089D01*
X555976Y-4250570D01*
X555981Y-4250570D01*
X562433Y-4251942D01*
X753407Y-4251942D01*
X759859Y-4250570D01*
X759864Y-4250570D01*
X846808Y-4232089D01*
X940208Y-4212236D01*
X951014Y-4207425D01*
X1108642Y-4137245D01*
X1108644Y-4137244D01*
X1114672Y-4134560D01*
X1158195Y-4102939D01*
X1247591Y-4037988D01*
X1269173Y-4022308D01*
X1273588Y-4017405D01*
X1278500Y-4012982D01*
X1279625Y-4014231D01*
X1332934Y-3981391D01*
X1366120Y-3976942D01*
X1660228Y-3976942D01*
X1728349Y-3996944D01*
X1753863Y-4018631D01*
X1835588Y-4109396D01*
X1870223Y-4134560D01*
X1977135Y-4212236D01*
X1990089Y-4221648D01*
X1996117Y-4224332D01*
X1996119Y-4224333D01*
X2158522Y-4296639D01*
X2164553Y-4299324D01*
X2245138Y-4316453D01*
X2344897Y-4337658D01*
X2344902Y-4337658D01*
X2351354Y-4339030D01*
X2428702Y-4339030D01*
X2496823Y-4359032D01*
X2504473Y-4364441D01*
X2505011Y-4364759D01*
X2511270Y-4369614D01*
X2518539Y-4372759D01*
X2518543Y-4372762D01*
X2551848Y-4387174D01*
X2562498Y-4392391D01*
X2601251Y-4413695D01*
X2608926Y-4415666D01*
X2608927Y-4415666D01*
X2620873Y-4418733D01*
X2639578Y-4425137D01*
X2658166Y-4433181D01*
X2665989Y-4434420D01*
X2665999Y-4434423D01*
X2701835Y-4440099D01*
X2713455Y-4442505D01*
X2748600Y-4451528D01*
X2756281Y-4453500D01*
X2776535Y-4453500D01*
X2796245Y-4455051D01*
X2816254Y-4458220D01*
X2824146Y-4457474D01*
X2860272Y-4454059D01*
X2872130Y-4453500D01*
X6344274Y-4453500D01*
X6412395Y-4473502D01*
X6451707Y-4513665D01*
X6519987Y-4625088D01*
X6666250Y-4793938D01*
X6838126Y-4936632D01*
X7031000Y-5049338D01*
X7035825Y-5051180D01*
X7035826Y-5051181D01*
X7076720Y-5066797D01*
X7239692Y-5129030D01*
X7244760Y-5130061D01*
X7244763Y-5130062D01*
X7301814Y-5141669D01*
X7458597Y-5173567D01*
X7463772Y-5173757D01*
X7463774Y-5173757D01*
X7676673Y-5181564D01*
X7676677Y-5181564D01*
X7681837Y-5181753D01*
X7686957Y-5181097D01*
X7686959Y-5181097D01*
X7898288Y-5154025D01*
X7898289Y-5154025D01*
X7903416Y-5153368D01*
X7934911Y-5143919D01*
X8112429Y-5090661D01*
X8112434Y-5090659D01*
X8117384Y-5089174D01*
X8317994Y-4990896D01*
X8499860Y-4861173D01*
X8658096Y-4703489D01*
X8662661Y-4697137D01*
X8785435Y-4526277D01*
X8788453Y-4522077D01*
X8792611Y-4513665D01*
X8885136Y-4326453D01*
X8885137Y-4326451D01*
X8887430Y-4321811D01*
X8943506Y-4137245D01*
X8950865Y-4113023D01*
X8950865Y-4113021D01*
X8952370Y-4108069D01*
X8981529Y-3886590D01*
X8983156Y-3820000D01*
X8964852Y-3597361D01*
X8910431Y-3380702D01*
X8821354Y-3175840D01*
X8700014Y-2988277D01*
X8549670Y-2823051D01*
X8545619Y-2819852D01*
X8545615Y-2819848D01*
X8378414Y-2687800D01*
X8378410Y-2687798D01*
X8374359Y-2684598D01*
X8333053Y-2661796D01*
X8283084Y-2611364D01*
X8268312Y-2541921D01*
X8293428Y-2475516D01*
X8320780Y-2448909D01*
X8379355Y-2407128D01*
X8499860Y-2321173D01*
X8658096Y-2163489D01*
X8668533Y-2148965D01*
X8785435Y-1986277D01*
X8788453Y-1982077D01*
X8803102Y-1952438D01*
X8885136Y-1786453D01*
X8885137Y-1786451D01*
X8887430Y-1781811D01*
X8952370Y-1568069D01*
X8981529Y-1346590D01*
X8983156Y-1280000D01*
X8964852Y-1057361D01*
X8936821Y-945765D01*
X8939625Y-874823D01*
X8969930Y-825974D01*
X9186758Y-609146D01*
X9195048Y-601602D01*
X9201529Y-597489D01*
X9248170Y-547821D01*
X9250924Y-544980D01*
X9270645Y-525259D01*
X9273123Y-522064D01*
X9280829Y-513042D01*
X9305669Y-486590D01*
X9311097Y-480810D01*
X9320857Y-463057D01*
X9331710Y-446534D01*
X9339264Y-436795D01*
X9344124Y-430530D01*
X9361687Y-389946D01*
X9366894Y-379316D01*
X9388206Y-340549D01*
X9390177Y-332872D01*
X9390179Y-332867D01*
X9393243Y-320931D01*
X9399649Y-302219D01*
X9404545Y-290906D01*
X9407692Y-283634D01*
X9409818Y-270215D01*
X9414608Y-239970D01*
X9417015Y-228349D01*
X9426039Y-193200D01*
X9426039Y-193199D01*
X9428011Y-185519D01*
X9428011Y-165258D01*
X9429562Y-145547D01*
X9431490Y-133374D01*
X9432730Y-125546D01*
X9428570Y-81535D01*
X9428011Y-69678D01*
X9428011Y1667732D01*
X9428538Y1678915D01*
X9430213Y1686408D01*
X9428073Y1754499D01*
X9428011Y1758456D01*
X9428011Y1786355D01*
X9427507Y1790346D01*
X9426574Y1802188D01*
X9425434Y1838463D01*
X9425185Y1846388D01*
X9422973Y1854002D01*
X9422972Y1854007D01*
X9419534Y1865840D01*
X9415523Y1885204D01*
X9413978Y1897435D01*
X9412985Y1905296D01*
X9410068Y1912663D01*
X9410067Y1912668D01*
X9396709Y1946407D01*
X9392865Y1957634D01*
X9390743Y1964938D01*
X9380529Y2000092D01*
X9370218Y2017527D01*
X9361523Y2035275D01*
X9354063Y2054116D01*
X9328075Y2089886D01*
X9321559Y2099806D01*
X9303091Y2131034D01*
X9303089Y2131037D01*
X9299053Y2137861D01*
X9284732Y2152182D01*
X9271891Y2167216D01*
X9264643Y2177192D01*
X9259983Y2183606D01*
X9225918Y2211787D01*
X9217138Y2219777D01*
X8917395Y2519520D01*
X8883369Y2581832D01*
X8888434Y2652647D01*
X8905664Y2684180D01*
X8914786Y2696352D01*
X8923324Y2711946D01*
X8968478Y2832394D01*
X8972105Y2847649D01*
X8977631Y2898514D01*
X8978000Y2905328D01*
X8978000Y3527885D01*
X8973525Y3543124D01*
X8972135Y3544329D01*
X8964452Y3546000D01*
X6280116Y3546000D01*
X6264877Y3541525D01*
X6263672Y3540135D01*
X6262001Y3532452D01*
X6262001Y2905331D01*
X6262371Y2898510D01*
X6267895Y2847648D01*
X6271521Y2832397D01*
X6319514Y2704377D01*
X6324697Y2633570D01*
X6290627Y2571052D01*
X5274500Y1554925D01*
X5212188Y1520899D01*
X5185405Y1518020D01*
X330075Y1518020D01*
X261954Y1538022D01*
X240980Y1554925D01*
X71127Y1724778D01*
X37101Y1787090D01*
X35016Y1821839D01*
X35702Y1824909D01*
X33562Y1892986D01*
X33500Y1896945D01*
X33500Y1924856D01*
X32995Y1928856D01*
X32062Y1940699D01*
X30922Y1976971D01*
X30673Y1984890D01*
X25022Y2004342D01*
X21014Y2023694D01*
X19467Y2035937D01*
X18474Y2043797D01*
X15556Y2051168D01*
X2200Y2084903D01*
X-1645Y2096130D01*
X-9623Y2123589D01*
X-13982Y2138593D01*
X-18016Y2145415D01*
X-18019Y2145421D01*
X-24294Y2156032D01*
X-32990Y2173782D01*
X-37528Y2185244D01*
X-37531Y2185249D01*
X-40448Y2192617D01*
X-57128Y2215575D01*
X-66427Y2228375D01*
X-72943Y2238293D01*
X-91425Y2269543D01*
X-95458Y2276363D01*
X-109782Y2290687D01*
X-122624Y2305722D01*
X-123894Y2307470D01*
X-134528Y2322107D01*
X-168594Y2350289D01*
X-177373Y2358278D01*
X-1188782Y3369687D01*
X-1222808Y3431999D01*
X-1220245Y3495411D01*
X-1212187Y3521931D01*
X-1207630Y3536931D01*
X-1178471Y3758410D01*
X-1176844Y3825000D01*
X-1195148Y4047639D01*
X-1201296Y4072115D01*
X6262000Y4072115D01*
X6266475Y4056876D01*
X6267865Y4055671D01*
X6275548Y4054000D01*
X7347885Y4054000D01*
X7363124Y4058475D01*
X7364329Y4059865D01*
X7366000Y4067548D01*
X7366000Y4072115D01*
X7874000Y4072115D01*
X7878475Y4056876D01*
X7879865Y4055671D01*
X7887548Y4054000D01*
X8959884Y4054000D01*
X8975123Y4058475D01*
X8976328Y4059865D01*
X8977999Y4067548D01*
X8977999Y4694669D01*
X8977629Y4701490D01*
X8972105Y4752352D01*
X8968479Y4767604D01*
X8923324Y4888054D01*
X8914786Y4903649D01*
X8838285Y5005724D01*
X8825724Y5018285D01*
X8723649Y5094786D01*
X8708054Y5103324D01*
X8587606Y5148478D01*
X8572351Y5152105D01*
X8521486Y5157631D01*
X8514672Y5158000D01*
X7892115Y5158000D01*
X7876876Y5153525D01*
X7875671Y5152135D01*
X7874000Y5144452D01*
X7874000Y4072115D01*
X7366000Y4072115D01*
X7366000Y5139884D01*
X7361525Y5155123D01*
X7360135Y5156328D01*
X7352452Y5157999D01*
X6725331Y5157999D01*
X6718510Y5157629D01*
X6667648Y5152105D01*
X6652396Y5148479D01*
X6531946Y5103324D01*
X6516351Y5094786D01*
X6414276Y5018285D01*
X6401715Y5005724D01*
X6325214Y4903649D01*
X6316676Y4888054D01*
X6271522Y4767606D01*
X6267895Y4752351D01*
X6262369Y4701486D01*
X6262000Y4694672D01*
X6262000Y4072115D01*
X-1201296Y4072115D01*
X-1249569Y4264298D01*
X-1338646Y4469160D01*
X-1459986Y4656723D01*
X-1610330Y4821949D01*
X-1614381Y4825148D01*
X-1614385Y4825152D01*
X-1781586Y4957200D01*
X-1781590Y4957202D01*
X-1785641Y4960402D01*
X-1826947Y4983204D01*
X-1876916Y5033636D01*
X-1891688Y5103079D01*
X-1866572Y5169484D01*
X-1839220Y5196091D01*
X-1782326Y5236673D01*
X-1660140Y5323827D01*
X-1501904Y5481511D01*
X-1371547Y5662923D01*
X-1282277Y5843547D01*
X-1274864Y5858547D01*
X-1274863Y5858549D01*
X-1272570Y5863189D01*
X-1240100Y5970060D01*
X-1209135Y6071977D01*
X-1209135Y6071979D01*
X-1207630Y6076931D01*
X-1178471Y6298410D01*
X-1177210Y6350000D01*
X-1176926Y6361635D01*
X-1176926Y6361639D01*
X-1176844Y6365000D01*
X-1195148Y6587639D01*
X-1249569Y6804298D01*
X-1338646Y7009160D01*
X-1459986Y7196723D01*
X-1610330Y7361949D01*
X-1614381Y7365148D01*
X-1614385Y7365152D01*
X-1781586Y7497200D01*
X-1781590Y7497202D01*
X-1785641Y7500402D01*
X-1826947Y7523204D01*
X-1876916Y7573636D01*
X-1891688Y7643079D01*
X-1866572Y7709484D01*
X-1839220Y7736091D01*
X-1745992Y7802590D01*
X-1660140Y7863827D01*
X-1632223Y7891646D01*
X-1553105Y7970489D01*
X-1501904Y8021511D01*
X-1473964Y8060393D01*
X-1374565Y8198723D01*
X-1371547Y8202923D01*
X-1360066Y8226152D01*
X-1274864Y8398547D01*
X-1274863Y8398549D01*
X-1272570Y8403189D01*
X-1225966Y8556579D01*
X-1209135Y8611977D01*
X-1209135Y8611979D01*
X-1207630Y8616931D01*
X-1178471Y8838410D01*
X-1176844Y8905000D01*
X-1195148Y9127639D01*
X-1249569Y9344298D01*
X-1338646Y9549160D01*
X-1459986Y9736723D01*
X-1578799Y9867297D01*
X7890743Y9867297D01*
X7928268Y9582266D01*
X8004129Y9304964D01*
X8005813Y9301016D01*
X8067970Y9155293D01*
X8116923Y9040524D01*
X8128693Y9020858D01*
X8239872Y8835092D01*
X8264561Y8793839D01*
X8444313Y8569472D01*
X8461397Y8553260D01*
X8624431Y8398547D01*
X8652851Y8371577D01*
X8675787Y8355096D01*
X8855231Y8226152D01*
X8886317Y8203814D01*
X8890112Y8201805D01*
X8890113Y8201804D01*
X8911869Y8190285D01*
X9140392Y8069288D01*
X9410373Y7970489D01*
X9691264Y7909245D01*
X9699028Y7908634D01*
X9914282Y7891693D01*
X9914291Y7891693D01*
X9916739Y7891500D01*
X10072271Y7891500D01*
X10074407Y7891646D01*
X10074418Y7891646D01*
X10282548Y7905835D01*
X10282554Y7905836D01*
X10286825Y7906127D01*
X10291020Y7906996D01*
X10291022Y7906996D01*
X10479013Y7945927D01*
X10568342Y7964426D01*
X10839343Y8060393D01*
X11094812Y8192250D01*
X11098313Y8194711D01*
X11098317Y8194713D01*
X11212417Y8274904D01*
X11330023Y8357559D01*
X11479520Y8496480D01*
X11537479Y8550339D01*
X11537481Y8550342D01*
X11540622Y8553260D01*
X11722713Y8775732D01*
X11872927Y9020858D01*
X11988483Y9284102D01*
X12067244Y9560594D01*
X12107751Y9845216D01*
X12107845Y9863049D01*
X12109235Y10128417D01*
X12109235Y10128424D01*
X12109257Y10132703D01*
X12107525Y10145863D01*
X12072292Y10413478D01*
X12071732Y10417734D01*
X11995871Y10695036D01*
X11883077Y10959476D01*
X11735439Y11206161D01*
X11555687Y11430528D01*
X11347149Y11628423D01*
X11113683Y11796186D01*
X11091843Y11807750D01*
X11068654Y11820028D01*
X10859608Y11930712D01*
X10589627Y12029511D01*
X10308736Y12090755D01*
X10277685Y12093199D01*
X10085718Y12108307D01*
X10085709Y12108307D01*
X10083261Y12108500D01*
X9927729Y12108500D01*
X9925593Y12108354D01*
X9925582Y12108354D01*
X9717452Y12094165D01*
X9717446Y12094164D01*
X9713175Y12093873D01*
X9708980Y12093004D01*
X9708978Y12093004D01*
X9572416Y12064723D01*
X9431658Y12035574D01*
X9160657Y11939607D01*
X8905188Y11807750D01*
X8901687Y11805289D01*
X8901683Y11805287D01*
X8891594Y11798196D01*
X8669977Y11642441D01*
X8459378Y11446740D01*
X8277287Y11224268D01*
X8127073Y10979142D01*
X8011517Y10715898D01*
X7932756Y10439406D01*
X7892249Y10154784D01*
X7892227Y10150495D01*
X7892226Y10150488D01*
X7890765Y9871583D01*
X7890743Y9867297D01*
X-1578799Y9867297D01*
X-1610330Y9901949D01*
X-1614381Y9905148D01*
X-1614385Y9905152D01*
X-1781586Y10037200D01*
X-1781590Y10037202D01*
X-1785641Y10040402D01*
X-1981211Y10148362D01*
X-1986080Y10150086D01*
X-1986084Y10150088D01*
X-2186913Y10221205D01*
X-2186917Y10221206D01*
X-2191788Y10222931D01*
X-2196881Y10223838D01*
X-2196884Y10223839D01*
X-2406627Y10261200D01*
X-2406633Y10261201D01*
X-2411716Y10262106D01*
X-2485548Y10263008D01*
X-2629919Y10264772D01*
X-2629921Y10264772D01*
X-2635089Y10264835D01*
X-2855909Y10231045D01*
X-3068244Y10161643D01*
X-3266393Y10058493D01*
X-3270526Y10055390D01*
X-3270529Y10055388D01*
X-3294753Y10037200D01*
X-3445035Y9924365D01*
X-3599371Y9762862D01*
X-3725257Y9578320D01*
X-3819312Y9375695D01*
X-3879011Y9160430D01*
X-3902749Y8938305D01*
X-3902452Y8933152D01*
X-3902452Y8933149D01*
X-3896989Y8838410D01*
X-3889890Y8715285D01*
X-3888753Y8710239D01*
X-3888752Y8710233D01*
X-3868881Y8622061D01*
X-3857782Y8572814D01*
X-3856547Y8567332D01*
X-3861083Y8496480D01*
X-3890369Y8450536D01*
X-4106764Y8234141D01*
X-4115050Y8226601D01*
X-4121529Y8222489D01*
X-4126954Y8216712D01*
X-4168154Y8172838D01*
X-4170909Y8169996D01*
X-4190646Y8150259D01*
X-4193126Y8147062D01*
X-4200829Y8138042D01*
X-4231097Y8105810D01*
X-4234916Y8098864D01*
X-4234918Y8098861D01*
X-4240859Y8088055D01*
X-4251710Y8071536D01*
X-4264125Y8055530D01*
X-4267270Y8048261D01*
X-4267273Y8048257D01*
X-4281685Y8014952D01*
X-4286902Y8004302D01*
X-4308206Y7965549D01*
X-4310177Y7957874D01*
X-4310177Y7957873D01*
X-4313244Y7945927D01*
X-4319648Y7927223D01*
X-4327692Y7908634D01*
X-4328931Y7900811D01*
X-4328934Y7900801D01*
X-4334610Y7864965D01*
X-4337016Y7853345D01*
X-4348011Y7810519D01*
X-4348011Y7790265D01*
X-4349562Y7770555D01*
X-4352731Y7750546D01*
X-4351985Y7742654D01*
X-4348570Y7706528D01*
X-4348011Y7694670D01*
X-4348011Y4220084D01*
X-4368013Y4151963D01*
X-4384916Y4130989D01*
X-4773123Y3742782D01*
X-4835435Y3708756D01*
X-4906250Y3713821D01*
X-4963086Y3756368D01*
X-4987794Y3821553D01*
X-5004724Y4027478D01*
X-5005148Y4032639D01*
X-5059569Y4249298D01*
X-5148646Y4454160D01*
X-5269986Y4641723D01*
X-5420330Y4806949D01*
X-5424381Y4810148D01*
X-5424385Y4810152D01*
X-5591586Y4942200D01*
X-5591590Y4942202D01*
X-5595641Y4945402D01*
X-5636947Y4968204D01*
X-5686916Y5018636D01*
X-5701688Y5088079D01*
X-5676572Y5154484D01*
X-5649220Y5181091D01*
X-5605397Y5212350D01*
X-5470140Y5308827D01*
X-5311904Y5466511D01*
X-5298109Y5485708D01*
X-5184565Y5643723D01*
X-5181547Y5647923D01*
X-5174133Y5662923D01*
X-5084864Y5843547D01*
X-5084863Y5843549D01*
X-5082570Y5848189D01*
X-5017630Y6061931D01*
X-4988471Y6283410D01*
X-4988389Y6286760D01*
X-4986926Y6346635D01*
X-4986926Y6346639D01*
X-4986844Y6350000D01*
X-5005148Y6572639D01*
X-5059569Y6789298D01*
X-5148646Y6994160D01*
X-5269986Y7181723D01*
X-5420330Y7346949D01*
X-5424381Y7350148D01*
X-5424385Y7350152D01*
X-5591586Y7482200D01*
X-5591590Y7482202D01*
X-5595641Y7485402D01*
X-5622813Y7500402D01*
X-5664118Y7523203D01*
X-5791211Y7593362D01*
X-5796080Y7595086D01*
X-5796084Y7595088D01*
X-5996913Y7666205D01*
X-5996917Y7666206D01*
X-6001788Y7667931D01*
X-6006881Y7668838D01*
X-6006884Y7668839D01*
X-6216627Y7706200D01*
X-6216633Y7706201D01*
X-6221716Y7707106D01*
X-6295548Y7708008D01*
X-6439919Y7709772D01*
X-6439921Y7709772D01*
X-6445089Y7709835D01*
X-6665909Y7676045D01*
X-6878244Y7606643D01*
X-7076393Y7503493D01*
X-7080526Y7500390D01*
X-7080529Y7500388D01*
X-7104753Y7482200D01*
X-7255035Y7369365D01*
X-7409371Y7207862D01*
X-7535257Y7023320D01*
X-7629312Y6820695D01*
X-7689011Y6605430D01*
X-7712749Y6383305D01*
X-7712452Y6378152D01*
X-7712452Y6378149D01*
X-7706989Y6283410D01*
X-7699890Y6160285D01*
X-7698753Y6155239D01*
X-7698752Y6155233D01*
X-7682261Y6082061D01*
X-7650778Y5942361D01*
X-7566734Y5735384D01*
X-7450013Y5544912D01*
X-7303750Y5376062D01*
X-7131874Y5233368D01*
X-7068082Y5196091D01*
X-7058555Y5190524D01*
X-7009831Y5138886D01*
X-6996760Y5069103D01*
X-7023491Y5003331D01*
X-7063945Y4969973D01*
X-7076393Y4963493D01*
X-7080526Y4960390D01*
X-7080529Y4960388D01*
X-7250900Y4832470D01*
X-7255035Y4829365D01*
X-7409371Y4667862D01*
X-7535257Y4483320D01*
X-7629312Y4280695D01*
X-7689011Y4065430D01*
X-7689560Y4060293D01*
X-7690376Y4052658D01*
X-7712749Y3843305D01*
X-7712452Y3838152D01*
X-7712452Y3838149D01*
X-7707663Y3755092D01*
X-7699890Y3620285D01*
X-7698753Y3615239D01*
X-7698752Y3615233D01*
X-7677725Y3521931D01*
X-7650778Y3402361D01*
X-7566734Y3195384D01*
X-7564035Y3190980D01*
X-7487913Y3066760D01*
X-7450013Y3004912D01*
X-7303750Y2836062D01*
X-7131874Y2693368D01*
X-7062188Y2652647D01*
X-7058555Y2650524D01*
X-7009831Y2598886D01*
X-6996760Y2529103D01*
X-7023491Y2463331D01*
X-7063945Y2429973D01*
X-7076393Y2423493D01*
X-7080526Y2420390D01*
X-7080529Y2420388D01*
X-7250900Y2292470D01*
X-7255035Y2289365D01*
X-7258607Y2285627D01*
X-7391465Y2146599D01*
X-7409371Y2127862D01*
X-7412285Y2123590D01*
X-7412286Y2123589D01*
X-7438676Y2084903D01*
X-7535257Y1943320D01*
X-7580251Y1846388D01*
X-7624666Y1750703D01*
X-7629312Y1740695D01*
X-7689011Y1525430D01*
X-7712749Y1303305D01*
X-12991500Y1303305D01*
X-12991500Y9867297D01*
X-12109257Y9867297D01*
X-12071732Y9582266D01*
X-11995871Y9304964D01*
X-11994187Y9301016D01*
X-11932030Y9155293D01*
X-11883077Y9040524D01*
X-11871307Y9020858D01*
X-11760128Y8835092D01*
X-11735439Y8793839D01*
X-11555687Y8569472D01*
X-11538603Y8553260D01*
X-11375569Y8398547D01*
X-11347149Y8371577D01*
X-11324213Y8355096D01*
X-11144769Y8226152D01*
X-11113683Y8203814D01*
X-11109888Y8201805D01*
X-11109887Y8201804D01*
X-11088131Y8190285D01*
X-10859608Y8069288D01*
X-10589627Y7970489D01*
X-10308736Y7909245D01*
X-10300972Y7908634D01*
X-10085718Y7891693D01*
X-10085709Y7891693D01*
X-10083261Y7891500D01*
X-9927729Y7891500D01*
X-9925593Y7891646D01*
X-9925582Y7891646D01*
X-9717452Y7905835D01*
X-9717446Y7905836D01*
X-9713175Y7906127D01*
X-9708980Y7906996D01*
X-9708978Y7906996D01*
X-9520987Y7945927D01*
X-9431658Y7964426D01*
X-9160657Y8060393D01*
X-8905188Y8192250D01*
X-8901687Y8194711D01*
X-8901683Y8194713D01*
X-8787583Y8274904D01*
X-8669977Y8357559D01*
X-8520480Y8496480D01*
X-8462521Y8550339D01*
X-8462519Y8550342D01*
X-8459378Y8553260D01*
X-8277287Y8775732D01*
X-8127073Y9020858D01*
X-8011517Y9284102D01*
X-7932756Y9560594D01*
X-7892249Y9845216D01*
X-7892155Y9863049D01*
X-7890765Y10128417D01*
X-7890765Y10128424D01*
X-7890743Y10132703D01*
X-7892475Y10145863D01*
X-7927708Y10413478D01*
X-7928268Y10417734D01*
X-8004129Y10695036D01*
X-8116923Y10959476D01*
X-8264561Y11206161D01*
X-8444313Y11430528D01*
X-8652851Y11628423D01*
X-8886317Y11796186D01*
X-8908157Y11807750D01*
X-8931346Y11820028D01*
X-9140392Y11930712D01*
X-9410373Y12029511D01*
X-9691264Y12090755D01*
X-9722315Y12093199D01*
X-9914282Y12108307D01*
X-9914291Y12108307D01*
X-9916739Y12108500D01*
X-10072271Y12108500D01*
X-10074407Y12108354D01*
X-10074418Y12108354D01*
X-10282548Y12094165D01*
X-10282554Y12094164D01*
X-10286825Y12093873D01*
X-10291020Y12093004D01*
X-10291022Y12093004D01*
X-10427584Y12064723D01*
X-10568342Y12035574D01*
X-10839343Y11939607D01*
X-11094812Y11807750D01*
X-11098313Y11805289D01*
X-11098317Y11805287D01*
X-11108406Y11798196D01*
X-11330023Y11642441D01*
X-11540622Y11446740D01*
X-11722713Y11224268D01*
X-11872927Y10979142D01*
X-11988483Y10715898D01*
X-12067244Y10439406D01*
X-12107751Y10154784D01*
X-12107773Y10150495D01*
X-12107774Y10150488D01*
X-12109235Y9871583D01*
X-12109257Y9867297D01*
X-12991500Y9867297D01*
X-12991500Y12865500D01*
X-12971498Y12933621D01*
X-12917842Y12980114D01*
X-12865500Y12991500D01*
X12865500Y12991500D01*
X12933621Y12971498D01*
G37*
%TD.AperFunction*%
%TD*%
M02*
