%TF.GenerationSoftware,KiCad,Pcbnew,(6.0.5)*%
%TF.CreationDate,2022-10-07T13:32:44+01:00*%
%TF.ProjectId,IBBC_0001,49424243-5f30-4303-9031-2e6b69636164,rev?*%
%TF.SameCoordinates,Original*%
%TF.FileFunction,Soldermask,Top*%
%TF.FilePolarity,Negative*%
%FSLAX46Y46*%
G04 Gerber Fmt 4.6, Leading zero omitted, Abs format (unit mm)*
G04 Created by KiCad (PCBNEW (6.0.5)) date 2022-10-07 13:32:44*
%MOMM*%
%LPD*%
G01*
G04 APERTURE LIST*
G04 Aperture macros list*
%AMRoundRect*
0 Rectangle with rounded corners*
0 $1 Rounding radius*
0 $2 $3 $4 $5 $6 $7 $8 $9 X,Y pos of 4 corners*
0 Add a 4 corners polygon primitive as box body*
4,1,4,$2,$3,$4,$5,$6,$7,$8,$9,$2,$3,0*
0 Add four circle primitives for the rounded corners*
1,1,$1+$1,$2,$3*
1,1,$1+$1,$4,$5*
1,1,$1+$1,$6,$7*
1,1,$1+$1,$8,$9*
0 Add four rect primitives between the rounded corners*
20,1,$1+$1,$2,$3,$4,$5,0*
20,1,$1+$1,$4,$5,$6,$7,0*
20,1,$1+$1,$6,$7,$8,$9,0*
20,1,$1+$1,$8,$9,$2,$3,0*%
G04 Aperture macros list end*
%ADD10C,3.200000*%
%ADD11R,0.650000X1.560000*%
%ADD12RoundRect,0.237500X-0.300000X-0.237500X0.300000X-0.237500X0.300000X0.237500X-0.300000X0.237500X0*%
%ADD13RoundRect,0.250000X-0.337500X-0.475000X0.337500X-0.475000X0.337500X0.475000X-0.337500X0.475000X0*%
%ADD14RoundRect,0.150000X0.150000X0.625000X-0.150000X0.625000X-0.150000X-0.625000X0.150000X-0.625000X0*%
%ADD15RoundRect,0.250000X0.350000X0.650000X-0.350000X0.650000X-0.350000X-0.650000X0.350000X-0.650000X0*%
%ADD16RoundRect,0.150000X-0.325000X-0.150000X0.325000X-0.150000X0.325000X0.150000X-0.325000X0.150000X0*%
%ADD17RoundRect,0.150000X-0.150000X-0.325000X0.150000X-0.325000X0.150000X0.325000X-0.150000X0.325000X0*%
%ADD18R,1.700000X1.700000*%
%ADD19O,1.700000X1.700000*%
G04 APERTURE END LIST*
D10*
%TO.C,REF\u002A\u002A*%
X-10000000Y-10000000D03*
%TD*%
%TO.C,REF\u002A\u002A*%
X-10000000Y10000000D03*
%TD*%
%TO.C,REF\u002A\u002A*%
X10000000Y10000000D03*
%TD*%
%TO.C,REF\u002A\u002A*%
X10000000Y-10000000D03*
%TD*%
D11*
%TO.C,U2*%
X1590000Y-6810000D03*
X3490000Y-6810000D03*
X3490000Y-9510000D03*
X2540000Y-9510000D03*
X1590000Y-9510000D03*
%TD*%
D12*
%TO.C,C3*%
X1677500Y-2500000D03*
X3402500Y-2500000D03*
%TD*%
D13*
%TO.C,C2*%
X3577500Y-4500000D03*
X1502500Y-4500000D03*
%TD*%
%TO.C,C1*%
X1502500Y-11500000D03*
X3577500Y-11500000D03*
%TD*%
D14*
%TO.C,J1*%
X4040000Y5620000D03*
X3040000Y5620000D03*
X2040000Y5620000D03*
X1040000Y5620000D03*
D15*
X-260000Y9495000D03*
X5340000Y9495000D03*
%TD*%
D16*
%TO.C,U1*%
X1540000Y3000000D03*
X1540000Y2200000D03*
X1540000Y1400000D03*
X1540000Y600000D03*
X1540000Y-200000D03*
X1540000Y-1000000D03*
D17*
X2540000Y-1000000D03*
D16*
X3540000Y-1000000D03*
X3540000Y-200000D03*
X3540000Y600000D03*
X3540000Y1400000D03*
X3540000Y2200000D03*
X3540000Y3000000D03*
D17*
X2540000Y3000000D03*
%TD*%
D18*
%TO.C,J4*%
X7620000Y3800000D03*
D19*
X7620000Y1260000D03*
X7620000Y-1280000D03*
X7620000Y-3820000D03*
%TD*%
D18*
%TO.C,J3*%
X-6350000Y-6350000D03*
D19*
X-6350000Y-3810000D03*
X-6350000Y-1270000D03*
X-6350000Y1270000D03*
X-6350000Y3810000D03*
X-6350000Y6350000D03*
%TD*%
D18*
%TO.C,J2*%
X-2540000Y-8875000D03*
D19*
X-2540000Y-6335000D03*
X-2540000Y-3795000D03*
X-2540000Y-1255000D03*
X-2540000Y1285000D03*
X-2540000Y3825000D03*
X-2540000Y6365000D03*
X-2540000Y8905000D03*
%TD*%
M02*
