%TF.GenerationSoftware,KiCad,Pcbnew,(6.0.5)*%
%TF.CreationDate,2022-10-07T13:32:44+01:00*%
%TF.ProjectId,IBBC_0001,49424243-5f30-4303-9031-2e6b69636164,rev?*%
%TF.SameCoordinates,Original*%
%TF.FileFunction,Legend,Top*%
%TF.FilePolarity,Positive*%
%FSLAX46Y46*%
G04 Gerber Fmt 4.6, Leading zero omitted, Abs format (unit mm)*
G04 Created by KiCad (PCBNEW (6.0.5)) date 2022-10-07 13:32:44*
%MOMM*%
%LPD*%
G01*
G04 APERTURE LIST*
%ADD10C,0.150000*%
%ADD11C,0.120000*%
G04 APERTURE END LIST*
D10*
%TO.C,REF\u002A\u002A*%
X-11333333Y-6252380D02*
X-11666666Y-5776190D01*
X-11904761Y-6252380D02*
X-11904761Y-5252380D01*
X-11523809Y-5252380D01*
X-11428571Y-5300000D01*
X-11380952Y-5347619D01*
X-11333333Y-5442857D01*
X-11333333Y-5585714D01*
X-11380952Y-5680952D01*
X-11428571Y-5728571D01*
X-11523809Y-5776190D01*
X-11904761Y-5776190D01*
X-10904761Y-5728571D02*
X-10571428Y-5728571D01*
X-10428571Y-6252380D02*
X-10904761Y-6252380D01*
X-10904761Y-5252380D01*
X-10428571Y-5252380D01*
X-9666666Y-5728571D02*
X-10000000Y-5728571D01*
X-10000000Y-6252380D02*
X-10000000Y-5252380D01*
X-9523809Y-5252380D01*
X-9000000Y-5252380D02*
X-9000000Y-5490476D01*
X-9238095Y-5395238D02*
X-9000000Y-5490476D01*
X-8761904Y-5395238D01*
X-9142857Y-5680952D02*
X-9000000Y-5490476D01*
X-8857142Y-5680952D01*
X-8238095Y-5252380D02*
X-8238095Y-5490476D01*
X-8476190Y-5395238D02*
X-8238095Y-5490476D01*
X-8000000Y-5395238D01*
X-8380952Y-5680952D02*
X-8238095Y-5490476D01*
X-8095238Y-5680952D01*
X-11333333Y13747619D02*
X-11666666Y14223809D01*
X-11904761Y13747619D02*
X-11904761Y14747619D01*
X-11523809Y14747619D01*
X-11428571Y14700000D01*
X-11380952Y14652380D01*
X-11333333Y14557142D01*
X-11333333Y14414285D01*
X-11380952Y14319047D01*
X-11428571Y14271428D01*
X-11523809Y14223809D01*
X-11904761Y14223809D01*
X-10904761Y14271428D02*
X-10571428Y14271428D01*
X-10428571Y13747619D02*
X-10904761Y13747619D01*
X-10904761Y14747619D01*
X-10428571Y14747619D01*
X-9666666Y14271428D02*
X-10000000Y14271428D01*
X-10000000Y13747619D02*
X-10000000Y14747619D01*
X-9523809Y14747619D01*
X-9000000Y14747619D02*
X-9000000Y14509523D01*
X-9238095Y14604761D02*
X-9000000Y14509523D01*
X-8761904Y14604761D01*
X-9142857Y14319047D02*
X-9000000Y14509523D01*
X-8857142Y14319047D01*
X-8238095Y14747619D02*
X-8238095Y14509523D01*
X-8476190Y14604761D02*
X-8238095Y14509523D01*
X-8000000Y14604761D01*
X-8380952Y14319047D02*
X-8238095Y14509523D01*
X-8095238Y14319047D01*
X8666666Y13747619D02*
X8333333Y14223809D01*
X8095238Y13747619D02*
X8095238Y14747619D01*
X8476190Y14747619D01*
X8571428Y14700000D01*
X8619047Y14652380D01*
X8666666Y14557142D01*
X8666666Y14414285D01*
X8619047Y14319047D01*
X8571428Y14271428D01*
X8476190Y14223809D01*
X8095238Y14223809D01*
X9095238Y14271428D02*
X9428571Y14271428D01*
X9571428Y13747619D02*
X9095238Y13747619D01*
X9095238Y14747619D01*
X9571428Y14747619D01*
X10333333Y14271428D02*
X10000000Y14271428D01*
X10000000Y13747619D02*
X10000000Y14747619D01*
X10476190Y14747619D01*
X11000000Y14747619D02*
X11000000Y14509523D01*
X10761904Y14604761D02*
X11000000Y14509523D01*
X11238095Y14604761D01*
X10857142Y14319047D02*
X11000000Y14509523D01*
X11142857Y14319047D01*
X11761904Y14747619D02*
X11761904Y14509523D01*
X11523809Y14604761D02*
X11761904Y14509523D01*
X12000000Y14604761D01*
X11619047Y14319047D02*
X11761904Y14509523D01*
X11904761Y14319047D01*
X8666666Y-6252380D02*
X8333333Y-5776190D01*
X8095238Y-6252380D02*
X8095238Y-5252380D01*
X8476190Y-5252380D01*
X8571428Y-5300000D01*
X8619047Y-5347619D01*
X8666666Y-5442857D01*
X8666666Y-5585714D01*
X8619047Y-5680952D01*
X8571428Y-5728571D01*
X8476190Y-5776190D01*
X8095238Y-5776190D01*
X9095238Y-5728571D02*
X9428571Y-5728571D01*
X9571428Y-6252380D02*
X9095238Y-6252380D01*
X9095238Y-5252380D01*
X9571428Y-5252380D01*
X10333333Y-5728571D02*
X10000000Y-5728571D01*
X10000000Y-6252380D02*
X10000000Y-5252380D01*
X10476190Y-5252380D01*
X11000000Y-5252380D02*
X11000000Y-5490476D01*
X10761904Y-5395238D02*
X11000000Y-5490476D01*
X11238095Y-5395238D01*
X10857142Y-5680952D02*
X11000000Y-5490476D01*
X11142857Y-5680952D01*
X11761904Y-5252380D02*
X11761904Y-5490476D01*
X11523809Y-5395238D02*
X11761904Y-5490476D01*
X12000000Y-5395238D01*
X11619047Y-5680952D02*
X11761904Y-5490476D01*
X11904761Y-5680952D01*
%TO.C,U2*%
X-907619Y-8921904D02*
X-98095Y-8921904D01*
X-2857Y-8874285D01*
X44761Y-8826666D01*
X92380Y-8731428D01*
X92380Y-8540952D01*
X44761Y-8445714D01*
X-2857Y-8398095D01*
X-98095Y-8350476D01*
X-907619Y-8350476D01*
X-812380Y-7921904D02*
X-860000Y-7874285D01*
X-907619Y-7779047D01*
X-907619Y-7540952D01*
X-860000Y-7445714D01*
X-812380Y-7398095D01*
X-717142Y-7350476D01*
X-621904Y-7350476D01*
X-479047Y-7398095D01*
X92380Y-7969523D01*
X92380Y-7350476D01*
%TO.C,C3*%
X2373333Y-1427142D02*
X2325714Y-1474761D01*
X2182857Y-1522380D01*
X2087619Y-1522380D01*
X1944761Y-1474761D01*
X1849523Y-1379523D01*
X1801904Y-1284285D01*
X1754285Y-1093809D01*
X1754285Y-950952D01*
X1801904Y-760476D01*
X1849523Y-665238D01*
X1944761Y-570000D01*
X2087619Y-522380D01*
X2182857Y-522380D01*
X2325714Y-570000D01*
X2373333Y-617619D01*
X2706666Y-522380D02*
X3325714Y-522380D01*
X2992380Y-903333D01*
X3135238Y-903333D01*
X3230476Y-950952D01*
X3278095Y-998571D01*
X3325714Y-1093809D01*
X3325714Y-1331904D01*
X3278095Y-1427142D01*
X3230476Y-1474761D01*
X3135238Y-1522380D01*
X2849523Y-1522380D01*
X2754285Y-1474761D01*
X2706666Y-1427142D01*
%TO.C,C2*%
X2373333Y-3177142D02*
X2325714Y-3224761D01*
X2182857Y-3272380D01*
X2087619Y-3272380D01*
X1944761Y-3224761D01*
X1849523Y-3129523D01*
X1801904Y-3034285D01*
X1754285Y-2843809D01*
X1754285Y-2700952D01*
X1801904Y-2510476D01*
X1849523Y-2415238D01*
X1944761Y-2320000D01*
X2087619Y-2272380D01*
X2182857Y-2272380D01*
X2325714Y-2320000D01*
X2373333Y-2367619D01*
X2754285Y-2367619D02*
X2801904Y-2320000D01*
X2897142Y-2272380D01*
X3135238Y-2272380D01*
X3230476Y-2320000D01*
X3278095Y-2367619D01*
X3325714Y-2462857D01*
X3325714Y-2558095D01*
X3278095Y-2700952D01*
X2706666Y-3272380D01*
X3325714Y-3272380D01*
%TO.C,C1*%
X2373333Y-10177142D02*
X2325714Y-10224761D01*
X2182857Y-10272380D01*
X2087619Y-10272380D01*
X1944761Y-10224761D01*
X1849523Y-10129523D01*
X1801904Y-10034285D01*
X1754285Y-9843809D01*
X1754285Y-9700952D01*
X1801904Y-9510476D01*
X1849523Y-9415238D01*
X1944761Y-9320000D01*
X2087619Y-9272380D01*
X2182857Y-9272380D01*
X2325714Y-9320000D01*
X2373333Y-9367619D01*
X3325714Y-10272380D02*
X2754285Y-10272380D01*
X3040000Y-10272380D02*
X3040000Y-9272380D01*
X2944761Y-9415238D01*
X2849523Y-9510476D01*
X2754285Y-9558095D01*
%TO.C,J1*%
X2206666Y4187619D02*
X2206666Y3473333D01*
X2159047Y3330476D01*
X2063809Y3235238D01*
X1920952Y3187619D01*
X1825714Y3187619D01*
X3206666Y3187619D02*
X2635238Y3187619D01*
X2920952Y3187619D02*
X2920952Y4187619D01*
X2825714Y4044761D01*
X2730476Y3949523D01*
X2635238Y3901904D01*
%TO.C,U1*%
X1778095Y4997619D02*
X1778095Y4188095D01*
X1825714Y4092857D01*
X1873333Y4045238D01*
X1968571Y3997619D01*
X2159047Y3997619D01*
X2254285Y4045238D01*
X2301904Y4092857D01*
X2349523Y4188095D01*
X2349523Y4997619D01*
X3349523Y3997619D02*
X2778095Y3997619D01*
X3063809Y3997619D02*
X3063809Y4997619D01*
X2968571Y4854761D01*
X2873333Y4759523D01*
X2778095Y4711904D01*
%TO.C,J4*%
X7286666Y6677619D02*
X7286666Y5963333D01*
X7239047Y5820476D01*
X7143809Y5725238D01*
X7000952Y5677619D01*
X6905714Y5677619D01*
X8191428Y6344285D02*
X8191428Y5677619D01*
X7953333Y6725238D02*
X7715238Y6010952D01*
X8334285Y6010952D01*
%TO.C,J3*%
X-6683333Y-8132380D02*
X-6683333Y-8846666D01*
X-6730952Y-8989523D01*
X-6826190Y-9084761D01*
X-6969047Y-9132380D01*
X-7064285Y-9132380D01*
X-6302380Y-8132380D02*
X-5683333Y-8132380D01*
X-6016666Y-8513333D01*
X-5873809Y-8513333D01*
X-5778571Y-8560952D01*
X-5730952Y-8608571D01*
X-5683333Y-8703809D01*
X-5683333Y-8941904D01*
X-5730952Y-9037142D01*
X-5778571Y-9084761D01*
X-5873809Y-9132380D01*
X-6159523Y-9132380D01*
X-6254761Y-9084761D01*
X-6302380Y-9037142D01*
%TO.C,J2*%
X-2873333Y-10657380D02*
X-2873333Y-11371666D01*
X-2920952Y-11514523D01*
X-3016190Y-11609761D01*
X-3159047Y-11657380D01*
X-3254285Y-11657380D01*
X-2444761Y-10752619D02*
X-2397142Y-10705000D01*
X-2301904Y-10657380D01*
X-2063809Y-10657380D01*
X-1968571Y-10705000D01*
X-1920952Y-10752619D01*
X-1873333Y-10847857D01*
X-1873333Y-10943095D01*
X-1920952Y-11085952D01*
X-2492380Y-11657380D01*
X-1873333Y-11657380D01*
D11*
%TO.C,U2*%
X4150000Y-9060000D02*
X4150000Y-7260000D01*
X930000Y-7260000D02*
X930000Y-9710000D01*
%TO.C,C3*%
X2393733Y-1990000D02*
X2686267Y-1990000D01*
X2393733Y-3010000D02*
X2686267Y-3010000D01*
%TO.C,C2*%
X2278748Y-5235000D02*
X2801252Y-5235000D01*
X2278748Y-3765000D02*
X2801252Y-3765000D01*
%TO.C,C1*%
X2278748Y-10765000D02*
X2801252Y-10765000D01*
X2278748Y-12235000D02*
X2801252Y-12235000D01*
%TO.C,J1*%
X4480000Y10305000D02*
X600000Y10305000D01*
X5650000Y8335000D02*
X5650000Y5835000D01*
X-570000Y8335000D02*
X-570000Y5835000D01*
X5650000Y5835000D02*
X4600000Y5835000D01*
X-570000Y5835000D02*
X480000Y5835000D01*
X4600000Y5835000D02*
X4600000Y4845000D01*
%TO.C,U1*%
X3100000Y-1610000D02*
X4150000Y-1610000D01*
X3100000Y3610000D02*
X4150000Y3610000D01*
X1980000Y-1610000D02*
X930000Y-1610000D01*
%TO.C,J4*%
X8950000Y2530000D02*
X8950000Y-5150000D01*
X6290000Y3800000D02*
X6290000Y5130000D01*
X6290000Y-5150000D02*
X8950000Y-5150000D01*
X6290000Y2530000D02*
X8950000Y2530000D01*
X6290000Y5130000D02*
X7620000Y5130000D01*
X6290000Y2530000D02*
X6290000Y-5150000D01*
%TO.C,J3*%
X-5020000Y-5080000D02*
X-5020000Y7680000D01*
X-5020000Y-6350000D02*
X-5020000Y-7680000D01*
X-5020000Y-7680000D02*
X-6350000Y-7680000D01*
X-5020000Y-5080000D02*
X-7680000Y-5080000D01*
X-5020000Y7680000D02*
X-7680000Y7680000D01*
X-7680000Y-5080000D02*
X-7680000Y7680000D01*
%TO.C,J2*%
X-1210000Y-7605000D02*
X-3870000Y-7605000D01*
X-1210000Y10235000D02*
X-3870000Y10235000D01*
X-1210000Y-7605000D02*
X-1210000Y10235000D01*
X-1210000Y-8875000D02*
X-1210000Y-10205000D01*
X-3870000Y-7605000D02*
X-3870000Y10235000D01*
X-1210000Y-10205000D02*
X-2540000Y-10205000D01*
%TD*%
M02*
