%TF.GenerationSoftware,KiCad,Pcbnew,(6.0.5)*%
%TF.CreationDate,2022-10-07T13:32:43+01:00*%
%TF.ProjectId,IBBC_0001,49424243-5f30-4303-9031-2e6b69636164,rev?*%
%TF.SameCoordinates,Original*%
%TF.FileFunction,Copper,L1,Top*%
%TF.FilePolarity,Positive*%
%FSLAX46Y46*%
G04 Gerber Fmt 4.6, Leading zero omitted, Abs format (unit mm)*
G04 Created by KiCad (PCBNEW (6.0.5)) date 2022-10-07 13:32:43*
%MOMM*%
%LPD*%
G01*
G04 APERTURE LIST*
G04 Aperture macros list*
%AMRoundRect*
0 Rectangle with rounded corners*
0 $1 Rounding radius*
0 $2 $3 $4 $5 $6 $7 $8 $9 X,Y pos of 4 corners*
0 Add a 4 corners polygon primitive as box body*
4,1,4,$2,$3,$4,$5,$6,$7,$8,$9,$2,$3,0*
0 Add four circle primitives for the rounded corners*
1,1,$1+$1,$2,$3*
1,1,$1+$1,$4,$5*
1,1,$1+$1,$6,$7*
1,1,$1+$1,$8,$9*
0 Add four rect primitives between the rounded corners*
20,1,$1+$1,$2,$3,$4,$5,0*
20,1,$1+$1,$4,$5,$6,$7,0*
20,1,$1+$1,$6,$7,$8,$9,0*
20,1,$1+$1,$8,$9,$2,$3,0*%
G04 Aperture macros list end*
%TA.AperFunction,SMDPad,CuDef*%
%ADD10R,0.650000X1.560000*%
%TD*%
%TA.AperFunction,SMDPad,CuDef*%
%ADD11RoundRect,0.237500X-0.300000X-0.237500X0.300000X-0.237500X0.300000X0.237500X-0.300000X0.237500X0*%
%TD*%
%TA.AperFunction,SMDPad,CuDef*%
%ADD12RoundRect,0.250000X-0.337500X-0.475000X0.337500X-0.475000X0.337500X0.475000X-0.337500X0.475000X0*%
%TD*%
%TA.AperFunction,SMDPad,CuDef*%
%ADD13RoundRect,0.150000X0.150000X0.625000X-0.150000X0.625000X-0.150000X-0.625000X0.150000X-0.625000X0*%
%TD*%
%TA.AperFunction,SMDPad,CuDef*%
%ADD14RoundRect,0.250000X0.350000X0.650000X-0.350000X0.650000X-0.350000X-0.650000X0.350000X-0.650000X0*%
%TD*%
%TA.AperFunction,SMDPad,CuDef*%
%ADD15RoundRect,0.150000X-0.325000X-0.150000X0.325000X-0.150000X0.325000X0.150000X-0.325000X0.150000X0*%
%TD*%
%TA.AperFunction,SMDPad,CuDef*%
%ADD16RoundRect,0.150000X-0.150000X-0.325000X0.150000X-0.325000X0.150000X0.325000X-0.150000X0.325000X0*%
%TD*%
%TA.AperFunction,ComponentPad*%
%ADD17R,1.700000X1.700000*%
%TD*%
%TA.AperFunction,ComponentPad*%
%ADD18O,1.700000X1.700000*%
%TD*%
%TA.AperFunction,ViaPad*%
%ADD19C,0.800000*%
%TD*%
%TA.AperFunction,Conductor*%
%ADD20C,0.250000*%
%TD*%
G04 APERTURE END LIST*
D10*
%TO.P,U2,5,VOUT*%
%TO.N,3v3*%
X1590000Y-6810000D03*
%TO.P,U2,4,NC*%
%TO.N,unconnected-(U2-Pad4)*%
X3490000Y-6810000D03*
%TO.P,U2,3,EN*%
%TO.N,Vin*%
X3490000Y-9510000D03*
%TO.P,U2,2,GND*%
%TO.N,GND*%
X2540000Y-9510000D03*
%TO.P,U2,1,VIN*%
%TO.N,Vin*%
X1590000Y-9510000D03*
%TD*%
D11*
%TO.P,C3,1*%
%TO.N,3v3*%
X1677500Y-2500000D03*
%TO.P,C3,2*%
%TO.N,GND*%
X3402500Y-2500000D03*
%TD*%
D12*
%TO.P,C2,2*%
%TO.N,GND*%
X3577500Y-4500000D03*
%TO.P,C2,1*%
%TO.N,3v3*%
X1502500Y-4500000D03*
%TD*%
%TO.P,C1,1*%
%TO.N,Vin*%
X1502500Y-11500000D03*
%TO.P,C1,2*%
%TO.N,GND*%
X3577500Y-11500000D03*
%TD*%
D13*
%TO.P,J1,1,Pin_1*%
%TO.N,GND*%
X4040000Y5620000D03*
%TO.P,J1,2,Pin_2*%
%TO.N,3v3*%
X3040000Y5620000D03*
%TO.P,J1,3,Pin_3*%
%TO.N,SDA*%
X2040000Y5620000D03*
%TO.P,J1,4,Pin_4*%
%TO.N,SCL*%
X1040000Y5620000D03*
D14*
%TO.P,J1,MP*%
%TO.N,N/C*%
X-260000Y9495000D03*
X5340000Y9495000D03*
%TD*%
D15*
%TO.P,U1,1,Vdd_I/O*%
%TO.N,3v3*%
X1540000Y3000000D03*
%TO.P,U1,2,GND*%
%TO.N,GND*%
X1540000Y2200000D03*
%TO.P,U1,3,RES*%
%TO.N,unconnected-(U1-Pad3)*%
X1540000Y1400000D03*
%TO.P,U1,4,GND*%
%TO.N,GND*%
X1540000Y600000D03*
%TO.P,U1,5,GND*%
X1540000Y-200000D03*
%TO.P,U1,6,Vs*%
%TO.N,3v3*%
X1540000Y-1000000D03*
D16*
%TO.P,U1,7,~{CS}*%
%TO.N,CS*%
X2540000Y-1000000D03*
D15*
%TO.P,U1,8,INT1*%
%TO.N,INT1*%
X3540000Y-1000000D03*
%TO.P,U1,9,INT2*%
%TO.N,INT2*%
X3540000Y-200000D03*
%TO.P,U1,10,NC*%
%TO.N,unconnected-(U1-Pad10)*%
X3540000Y600000D03*
%TO.P,U1,11,RES*%
%TO.N,unconnected-(U1-Pad11)*%
X3540000Y1400000D03*
%TO.P,U1,12,SDO/ADDR*%
%TO.N,SDO*%
X3540000Y2200000D03*
%TO.P,U1,13,SDA/SDI/SDIO*%
%TO.N,SDA*%
X3540000Y3000000D03*
D16*
%TO.P,U1,14,SCL/SCLK*%
%TO.N,SCL*%
X2540000Y3000000D03*
%TD*%
D17*
%TO.P,J4,1,Pin_1*%
%TO.N,GND*%
X7620000Y3800000D03*
D18*
%TO.P,J4,2,Pin_2*%
%TO.N,INT2*%
X7620000Y1260000D03*
%TO.P,J4,3,Pin_3*%
%TO.N,SDO*%
X7620000Y-1280000D03*
%TO.P,J4,4,Pin_4*%
%TO.N,CS*%
X7620000Y-3820000D03*
%TD*%
D17*
%TO.P,J3,1,Pin_1*%
%TO.N,Vin*%
X-6350000Y-6350000D03*
D18*
%TO.P,J3,2,Pin_2*%
%TO.N,3v3*%
X-6350000Y-3810000D03*
%TO.P,J3,3,Pin_3*%
%TO.N,GND*%
X-6350000Y-1270000D03*
%TO.P,J3,4,Pin_4*%
%TO.N,SCL*%
X-6350000Y1270000D03*
%TO.P,J3,5,Pin_5*%
%TO.N,SDA*%
X-6350000Y3810000D03*
%TO.P,J3,6,Pin_6*%
%TO.N,INT1*%
X-6350000Y6350000D03*
%TD*%
D17*
%TO.P,J2,1,Pin_1*%
%TO.N,GND*%
X-2540000Y-8875000D03*
D18*
%TO.P,J2,2,Pin_2*%
%TO.N,3v3*%
X-2540000Y-6335000D03*
%TO.P,J2,3,Pin_3*%
%TO.N,CS*%
X-2540000Y-3795000D03*
%TO.P,J2,4,Pin_4*%
%TO.N,INT1*%
X-2540000Y-1255000D03*
%TO.P,J2,5,Pin_5*%
%TO.N,INT2*%
X-2540000Y1285000D03*
%TO.P,J2,6,Pin_6*%
%TO.N,SDO*%
X-2540000Y3825000D03*
%TO.P,J2,7,Pin_7*%
%TO.N,SDA*%
X-2540000Y6365000D03*
%TO.P,J2,8,Pin_8*%
%TO.N,SCL*%
X-2540000Y8905000D03*
%TD*%
D19*
%TO.N,GND*%
X4900000Y-3095500D03*
%TO.N,CS*%
X2446841Y-3430530D03*
X657920Y-3343442D03*
%TO.N,GND*%
X412299Y1887701D03*
%TO.N,INT1*%
X5000000Y-1500000D03*
%TD*%
D20*
%TO.N,GND*%
X4200000Y-2500000D02*
X4900000Y-3200000D01*
X4900000Y-3200000D02*
X4900000Y-3095500D01*
X3402500Y-2500000D02*
X4200000Y-2500000D01*
X1540000Y600000D02*
X1540000Y-200000D01*
X3577500Y-4500000D02*
X3577500Y-2675000D01*
X3577500Y-2675000D02*
X3402500Y-2500000D01*
%TO.N,CS*%
X2446841Y-3430530D02*
X2540000Y-3337371D01*
X2540000Y-2040000D02*
X2540000Y-1000000D01*
X2540000Y-2969816D02*
X2540000Y-2040000D01*
X2540000Y-3337371D02*
X2540000Y-2040000D01*
X700000Y-3400000D02*
X657920Y-3357920D01*
X305000Y-3795000D02*
X700000Y-3400000D01*
X-2540000Y-3795000D02*
X305000Y-3795000D01*
X657920Y-3357920D02*
X657920Y-3343442D01*
%TO.N,GND*%
X412299Y1381629D02*
X412299Y1887701D01*
X1193928Y600000D02*
X412299Y1381629D01*
X1540000Y600000D02*
X1193928Y600000D01*
X300000Y2000000D02*
X412299Y1887701D01*
X500000Y2200000D02*
X300000Y2000000D01*
X1540000Y2200000D02*
X500000Y2200000D01*
%TO.N,3v3*%
X500000Y3000000D02*
X1540000Y3000000D01*
X-624511Y818439D02*
X-624511Y1875489D01*
X-624511Y1875489D02*
X500000Y3000000D01*
X1193928Y-1000000D02*
X-624511Y818439D01*
X1540000Y-1000000D02*
X1193928Y-1000000D01*
%TO.N,GND*%
X1000000Y600000D02*
X1540000Y600000D01*
X1540000Y600000D02*
X1886072Y600000D01*
%TO.N,3v3*%
X2694511Y-5705489D02*
X1590000Y-6810000D01*
X7395521Y-5705489D02*
X2694511Y-5705489D01*
X9244031Y-3856979D02*
X7395521Y-5705489D01*
X9244031Y4524991D02*
X9244031Y-3856979D01*
X8794511Y4974511D02*
X9244031Y4524991D01*
X6445489Y4974511D02*
X8794511Y4974511D01*
X5329897Y2884031D02*
X6445489Y2884031D01*
X3040000Y5173928D02*
X5329897Y2884031D01*
X6445489Y2884031D02*
X6445489Y4974511D01*
X3040000Y5620000D02*
X3040000Y5173928D01*
%TO.N,CS*%
X2869704Y-3299520D02*
X2540000Y-2969816D01*
X7620000Y-3820000D02*
X7099520Y-3299520D01*
%TO.N,INT1*%
X5000000Y-1500000D02*
X4040000Y-1500000D01*
X4040000Y-1500000D02*
X3540000Y-1000000D01*
X-3890489Y95489D02*
X-2540000Y-1255000D01*
X-7524511Y783501D02*
X-6836499Y95489D01*
X-6836499Y95489D02*
X-3890489Y95489D01*
X-6350000Y6350000D02*
X-7524511Y5175489D01*
X-7524511Y5175489D02*
X-7524511Y783501D01*
%TO.N,SDO*%
X8106499Y2434511D02*
X4409991Y2434511D01*
X4409991Y2434511D02*
X4175480Y2200000D01*
X8794511Y1746499D02*
X8106499Y2434511D01*
X8794511Y-105489D02*
X8794511Y1746499D01*
X7620000Y-1280000D02*
X8794511Y-105489D01*
X4175480Y2200000D02*
X3540000Y2200000D01*
%TO.N,INT2*%
X6160000Y-200000D02*
X7620000Y1260000D01*
X3540000Y-200000D02*
X6160000Y-200000D01*
%TO.N,SCL*%
X-5120000Y2500000D02*
X-6350000Y1270000D01*
X-2080000Y2500000D02*
X-5120000Y2500000D01*
X1040000Y5620000D02*
X-2080000Y2500000D01*
%TO.N,SDA*%
X-3795000Y6365000D02*
X-6350000Y3810000D01*
X-2540000Y6365000D02*
X-3795000Y6365000D01*
X2040000Y6066072D02*
X891072Y7215000D01*
X2040000Y5620000D02*
X2040000Y6066072D01*
X891072Y7215000D02*
X-1690000Y7215000D01*
X-1690000Y7215000D02*
X-2540000Y6365000D01*
%TO.N,SCL*%
X1040000Y5173928D02*
X1040000Y5620000D01*
X2540000Y3673928D02*
X1040000Y5173928D01*
X2540000Y3000000D02*
X2540000Y3673928D01*
%TO.N,SDA*%
X2040000Y5173928D02*
X2040000Y5620000D01*
X3540000Y3000000D02*
X3540000Y3673928D01*
X3540000Y3673928D02*
X2040000Y5173928D01*
%TO.N,3v3*%
X1677500Y-1137500D02*
X1540000Y-1000000D01*
X1677500Y-2500000D02*
X1677500Y-1137500D01*
X1502500Y-2675000D02*
X1677500Y-2500000D01*
X1502500Y-4500000D02*
X1502500Y-2675000D01*
%TO.N,Vin*%
X4450480Y-12549520D02*
X2552020Y-12549520D01*
X4489520Y-12510480D02*
X4450480Y-12549520D01*
X4489520Y-10509520D02*
X4489520Y-12510480D01*
X2552020Y-12549520D02*
X1502500Y-11500000D01*
X3490000Y-9510000D02*
X4489520Y-10509520D01*
%TO.N,3v3*%
X1590000Y-4587500D02*
X1502500Y-4500000D01*
X1590000Y-6810000D02*
X1590000Y-4587500D01*
X-2540000Y-6335000D02*
X-5065000Y-3810000D01*
X-5065000Y-3810000D02*
X-6350000Y-3810000D01*
X-2065000Y-6810000D02*
X-2540000Y-6335000D01*
X1590000Y-6810000D02*
X-2065000Y-6810000D01*
%TO.N,Vin*%
X1502500Y-9597500D02*
X1590000Y-9510000D01*
X1502500Y-11500000D02*
X1502500Y-9597500D01*
X-2264022Y-11500000D02*
X1502500Y-11500000D01*
X-6350000Y-7414022D02*
X-2264022Y-11500000D01*
X-6350000Y-6350000D02*
X-6350000Y-7414022D01*
%TD*%
%TA.AperFunction,Conductor*%
%TO.N,GND*%
G36*
X12933621Y12971498D02*
G01*
X12980114Y12917842D01*
X12991500Y12865500D01*
X12991500Y-12865500D01*
X12971498Y-12933621D01*
X12917842Y-12980114D01*
X12865500Y-12991500D01*
X5163453Y-12991500D01*
X5095332Y-12971498D01*
X5048839Y-12917842D01*
X5038735Y-12847568D01*
X5047815Y-12815462D01*
X5056693Y-12794945D01*
X5061911Y-12784293D01*
X5083215Y-12745540D01*
X5088253Y-12725917D01*
X5094657Y-12707214D01*
X5099553Y-12695900D01*
X5099553Y-12695899D01*
X5102701Y-12688625D01*
X5103940Y-12680802D01*
X5103943Y-12680792D01*
X5109619Y-12644956D01*
X5112025Y-12633336D01*
X5121048Y-12598191D01*
X5121048Y-12598190D01*
X5123020Y-12590510D01*
X5123020Y-12570256D01*
X5124571Y-12550545D01*
X5126500Y-12538366D01*
X5127740Y-12530537D01*
X5123579Y-12486518D01*
X5123020Y-12474661D01*
X5123020Y-10588288D01*
X5123547Y-10577105D01*
X5125222Y-10569612D01*
X5123082Y-10501521D01*
X5123020Y-10497564D01*
X5123020Y-10469664D01*
X5122516Y-10465673D01*
X5121583Y-10453831D01*
X5121260Y-10443534D01*
X5120194Y-10409631D01*
X5117982Y-10402017D01*
X5117981Y-10402012D01*
X5114543Y-10390179D01*
X5110532Y-10370815D01*
X5108987Y-10358584D01*
X5107994Y-10350723D01*
X5105077Y-10343356D01*
X5105076Y-10343351D01*
X5091718Y-10309612D01*
X5087874Y-10298385D01*
X5077750Y-10263542D01*
X5075538Y-10255927D01*
X5065227Y-10238492D01*
X5056532Y-10220744D01*
X5049072Y-10201903D01*
X5023084Y-10166133D01*
X5016568Y-10156213D01*
X5002664Y-10132703D01*
X7890743Y-10132703D01*
X7891302Y-10136947D01*
X7891302Y-10136951D01*
X7899853Y-10201903D01*
X7928268Y-10417734D01*
X8004129Y-10695036D01*
X8005813Y-10698984D01*
X8078261Y-10868834D01*
X8116923Y-10959476D01*
X8264561Y-11206161D01*
X8444313Y-11430528D01*
X8652851Y-11628423D01*
X8886317Y-11796186D01*
X8890112Y-11798195D01*
X8890113Y-11798196D01*
X8911869Y-11809715D01*
X9140392Y-11930712D01*
X9210623Y-11956413D01*
X9375054Y-12016586D01*
X9410373Y-12029511D01*
X9691264Y-12090755D01*
X9719841Y-12093004D01*
X9914282Y-12108307D01*
X9914291Y-12108307D01*
X9916739Y-12108500D01*
X10072271Y-12108500D01*
X10074407Y-12108354D01*
X10074418Y-12108354D01*
X10282548Y-12094165D01*
X10282554Y-12094164D01*
X10286825Y-12093873D01*
X10291020Y-12093004D01*
X10291022Y-12093004D01*
X10500545Y-12049614D01*
X10568342Y-12035574D01*
X10839343Y-11939607D01*
X11094812Y-11807750D01*
X11098313Y-11805289D01*
X11098317Y-11805287D01*
X11212417Y-11725096D01*
X11330023Y-11642441D01*
X11540622Y-11446740D01*
X11722713Y-11224268D01*
X11872927Y-10979142D01*
X11922697Y-10865764D01*
X11986757Y-10719830D01*
X11988483Y-10715898D01*
X11992712Y-10701054D01*
X12066068Y-10443534D01*
X12067244Y-10439406D01*
X12107751Y-10154784D01*
X12107845Y-10136951D01*
X12109235Y-9871583D01*
X12109235Y-9871576D01*
X12109257Y-9867297D01*
X12106007Y-9842606D01*
X12072292Y-9586522D01*
X12071732Y-9582266D01*
X11995871Y-9304964D01*
X11921528Y-9130671D01*
X11884763Y-9044476D01*
X11884761Y-9044472D01*
X11883077Y-9040524D01*
X11735439Y-8793839D01*
X11555687Y-8569472D01*
X11388329Y-8410655D01*
X11350258Y-8374527D01*
X11350255Y-8374525D01*
X11347149Y-8371577D01*
X11138296Y-8221500D01*
X11117172Y-8206321D01*
X11117171Y-8206320D01*
X11113683Y-8203814D01*
X11091843Y-8192250D01*
X11047502Y-8168773D01*
X10859608Y-8069288D01*
X10616522Y-7980331D01*
X10593658Y-7971964D01*
X10593656Y-7971963D01*
X10589627Y-7970489D01*
X10308736Y-7909245D01*
X10277685Y-7906801D01*
X10085718Y-7891693D01*
X10085709Y-7891693D01*
X10083261Y-7891500D01*
X9927729Y-7891500D01*
X9925593Y-7891646D01*
X9925582Y-7891646D01*
X9717452Y-7905835D01*
X9717446Y-7905836D01*
X9713175Y-7906127D01*
X9708980Y-7906996D01*
X9708978Y-7906996D01*
X9572416Y-7935277D01*
X9431658Y-7964426D01*
X9160657Y-8060393D01*
X9156848Y-8062359D01*
X9034782Y-8125362D01*
X8905188Y-8192250D01*
X8901687Y-8194711D01*
X8901683Y-8194713D01*
X8795211Y-8269543D01*
X8669977Y-8357559D01*
X8459378Y-8553260D01*
X8277287Y-8775732D01*
X8127073Y-9020858D01*
X8125347Y-9024791D01*
X8125346Y-9024792D01*
X8071650Y-9147115D01*
X8011517Y-9284102D01*
X7932756Y-9560594D01*
X7929672Y-9582266D01*
X7894792Y-9827351D01*
X7892249Y-9845216D01*
X7892227Y-9849505D01*
X7892226Y-9849512D01*
X7890819Y-10118158D01*
X7890743Y-10132703D01*
X5002664Y-10132703D01*
X4998100Y-10124985D01*
X4998098Y-10124982D01*
X4994062Y-10118158D01*
X4979741Y-10103837D01*
X4966900Y-10088803D01*
X4959651Y-10078826D01*
X4954992Y-10072413D01*
X4948888Y-10067363D01*
X4948883Y-10067358D01*
X4920922Y-10044227D01*
X4912141Y-10036237D01*
X4360404Y-9484499D01*
X4326379Y-9422187D01*
X4323500Y-9395404D01*
X4323500Y-8681866D01*
X4316745Y-8619684D01*
X4265615Y-8483295D01*
X4178261Y-8366739D01*
X4061705Y-8279385D01*
X4053297Y-8276233D01*
X4045425Y-8271923D01*
X4046728Y-8269543D01*
X4001196Y-8235336D01*
X3976499Y-8168773D01*
X3991709Y-8099425D01*
X4041997Y-8049309D01*
X4049097Y-8046067D01*
X4053299Y-8043766D01*
X4061705Y-8040615D01*
X4178261Y-7953261D01*
X4265615Y-7836705D01*
X4316745Y-7700316D01*
X4323500Y-7638134D01*
X4323500Y-6464989D01*
X4343502Y-6396868D01*
X4397158Y-6350375D01*
X4449500Y-6338989D01*
X7316754Y-6338989D01*
X7327937Y-6339516D01*
X7335430Y-6341191D01*
X7343356Y-6340942D01*
X7343357Y-6340942D01*
X7403507Y-6339051D01*
X7407466Y-6338989D01*
X7435377Y-6338989D01*
X7439312Y-6338492D01*
X7439377Y-6338484D01*
X7451214Y-6337551D01*
X7483472Y-6336537D01*
X7487491Y-6336411D01*
X7495410Y-6336162D01*
X7514864Y-6330510D01*
X7534221Y-6326502D01*
X7546451Y-6324957D01*
X7546452Y-6324957D01*
X7554318Y-6323963D01*
X7561689Y-6321044D01*
X7561691Y-6321044D01*
X7595433Y-6307685D01*
X7606663Y-6303840D01*
X7641504Y-6293718D01*
X7641505Y-6293718D01*
X7649114Y-6291507D01*
X7655933Y-6287474D01*
X7655938Y-6287472D01*
X7666549Y-6281196D01*
X7684297Y-6272501D01*
X7703138Y-6265041D01*
X7738908Y-6239053D01*
X7748828Y-6232537D01*
X7780056Y-6214069D01*
X7780059Y-6214067D01*
X7786883Y-6210031D01*
X7801204Y-6195710D01*
X7816238Y-6182869D01*
X7826215Y-6175620D01*
X7832628Y-6170961D01*
X7860819Y-6136884D01*
X7868809Y-6128105D01*
X9636284Y-4360631D01*
X9644570Y-4353091D01*
X9651049Y-4348979D01*
X9697678Y-4299324D01*
X9700429Y-4296486D01*
X9720166Y-4276749D01*
X9722646Y-4273552D01*
X9730351Y-4264530D01*
X9749321Y-4244329D01*
X9760617Y-4232300D01*
X9764436Y-4225354D01*
X9764438Y-4225351D01*
X9770379Y-4214545D01*
X9781230Y-4198026D01*
X9788789Y-4188280D01*
X9793645Y-4182020D01*
X9796790Y-4174751D01*
X9796793Y-4174747D01*
X9811205Y-4141442D01*
X9816422Y-4130792D01*
X9837726Y-4092039D01*
X9842764Y-4072416D01*
X9849168Y-4053713D01*
X9854064Y-4042399D01*
X9854064Y-4042398D01*
X9857212Y-4035124D01*
X9858451Y-4027301D01*
X9858454Y-4027291D01*
X9864130Y-3991455D01*
X9866536Y-3979835D01*
X9875559Y-3944690D01*
X9875559Y-3944689D01*
X9877531Y-3937009D01*
X9877531Y-3916755D01*
X9879082Y-3897044D01*
X9881011Y-3884865D01*
X9882251Y-3877036D01*
X9878090Y-3833017D01*
X9877531Y-3821160D01*
X9877531Y4446224D01*
X9878058Y4457407D01*
X9879733Y4464900D01*
X9879463Y4473508D01*
X9877593Y4532977D01*
X9877531Y4536936D01*
X9877531Y4564847D01*
X9877026Y4568847D01*
X9876093Y4580690D01*
X9874953Y4616962D01*
X9874704Y4624881D01*
X9869053Y4644333D01*
X9865045Y4663685D01*
X9863498Y4675928D01*
X9862505Y4683788D01*
X9859587Y4691159D01*
X9846231Y4724894D01*
X9842386Y4736121D01*
X9841488Y4739210D01*
X9830049Y4778584D01*
X9826015Y4785406D01*
X9826012Y4785412D01*
X9819737Y4796023D01*
X9811041Y4813773D01*
X9806503Y4825235D01*
X9806500Y4825240D01*
X9803583Y4832608D01*
X9777604Y4868366D01*
X9771088Y4878284D01*
X9752606Y4909534D01*
X9748573Y4916354D01*
X9734249Y4930678D01*
X9721407Y4945713D01*
X9714949Y4954602D01*
X9709503Y4962098D01*
X9675437Y4990280D01*
X9666658Y4998269D01*
X9298163Y5366764D01*
X9290623Y5375050D01*
X9286511Y5381529D01*
X9236859Y5428155D01*
X9234018Y5430909D01*
X9214281Y5450646D01*
X9211084Y5453126D01*
X9202062Y5460831D01*
X9169832Y5491097D01*
X9162886Y5494916D01*
X9162883Y5494918D01*
X9152077Y5500859D01*
X9135558Y5511710D01*
X9129336Y5516536D01*
X9119552Y5524125D01*
X9112283Y5527270D01*
X9112279Y5527273D01*
X9078974Y5541685D01*
X9068324Y5546902D01*
X9029571Y5568206D01*
X9009948Y5573244D01*
X8991245Y5579648D01*
X8979931Y5584544D01*
X8979930Y5584544D01*
X8972656Y5587692D01*
X8964833Y5588931D01*
X8964823Y5588934D01*
X8928987Y5594610D01*
X8917367Y5597016D01*
X8882222Y5606039D01*
X8882221Y5606039D01*
X8874541Y5608011D01*
X8854287Y5608011D01*
X8834576Y5609562D01*
X8830277Y5610243D01*
X8814568Y5612731D01*
X8788862Y5610301D01*
X8770550Y5608570D01*
X8758692Y5608011D01*
X6517282Y5608011D01*
X6493673Y5610243D01*
X6493370Y5610301D01*
X6493366Y5610301D01*
X6485583Y5611786D01*
X6429538Y5608260D01*
X6421627Y5608011D01*
X6405633Y5608011D01*
X6389759Y5606005D01*
X6381899Y5605263D01*
X6354440Y5603535D01*
X6333752Y5602234D01*
X6333751Y5602234D01*
X6325839Y5601736D01*
X6318298Y5599286D01*
X6318002Y5599190D01*
X6294858Y5594017D01*
X6294554Y5593979D01*
X6294549Y5593978D01*
X6286692Y5592985D01*
X6279327Y5590069D01*
X6279323Y5590068D01*
X6234478Y5572312D01*
X6227059Y5569640D01*
X6173614Y5552275D01*
X6166918Y5548025D01*
X6166917Y5548025D01*
X6166658Y5547861D01*
X6145531Y5537096D01*
X6145243Y5536982D01*
X6145238Y5536979D01*
X6137872Y5534063D01*
X6131464Y5529407D01*
X6131458Y5529404D01*
X6092437Y5501053D01*
X6085900Y5496610D01*
X6038471Y5466511D01*
X6033045Y5460733D01*
X6033044Y5460732D01*
X6032830Y5460504D01*
X6015043Y5444823D01*
X6014798Y5444645D01*
X6014796Y5444643D01*
X6008382Y5439983D01*
X6003328Y5433874D01*
X6003327Y5433873D01*
X5972586Y5396715D01*
X5967355Y5390781D01*
X5934331Y5355613D01*
X5934329Y5355610D01*
X5928903Y5349832D01*
X5924934Y5342612D01*
X5911608Y5323005D01*
X5911409Y5322765D01*
X5911405Y5322758D01*
X5906356Y5316655D01*
X5902982Y5309484D01*
X5882442Y5265835D01*
X5878860Y5258803D01*
X5851794Y5209571D01*
X5849824Y5201896D01*
X5849821Y5201890D01*
X5849745Y5201592D01*
X5841713Y5179283D01*
X5841583Y5179008D01*
X5841580Y5179000D01*
X5838206Y5171829D01*
X5832072Y5139670D01*
X5827684Y5116668D01*
X5825960Y5108953D01*
X5811989Y5054541D01*
X5811989Y5046304D01*
X5809757Y5022695D01*
X5808214Y5014605D01*
X5811467Y4962896D01*
X5811740Y4958560D01*
X5811989Y4950649D01*
X5811989Y3643531D01*
X5791987Y3575410D01*
X5738331Y3528917D01*
X5685989Y3517531D01*
X5644492Y3517531D01*
X5576371Y3537533D01*
X5555397Y3554436D01*
X4706788Y4403045D01*
X4672762Y4465357D01*
X4677827Y4536172D01*
X4703753Y4576512D01*
X4703593Y4576636D01*
X4704988Y4578435D01*
X4706788Y4581235D01*
X4708449Y4582896D01*
X4718089Y4595322D01*
X4794648Y4724779D01*
X4800893Y4739210D01*
X4843269Y4885065D01*
X4845570Y4897667D01*
X4847807Y4926084D01*
X4848000Y4931014D01*
X4848000Y5347885D01*
X4843525Y5363124D01*
X4842135Y5364329D01*
X4834452Y5366000D01*
X3974500Y5366000D01*
X3906379Y5386002D01*
X3859886Y5439658D01*
X3848500Y5492000D01*
X3848500Y5892115D01*
X4294000Y5892115D01*
X4298475Y5876876D01*
X4299865Y5875671D01*
X4307548Y5874000D01*
X4829884Y5874000D01*
X4845123Y5878475D01*
X4846328Y5879865D01*
X4847999Y5887548D01*
X4847999Y6308984D01*
X4847805Y6313920D01*
X4845570Y6342336D01*
X4843270Y6354931D01*
X4800893Y6500790D01*
X4794648Y6515221D01*
X4718089Y6644678D01*
X4708449Y6657104D01*
X4602104Y6763449D01*
X4589678Y6773089D01*
X4460221Y6849648D01*
X4445790Y6855893D01*
X4311395Y6894939D01*
X4297294Y6894899D01*
X4294000Y6887630D01*
X4294000Y5892115D01*
X3848500Y5892115D01*
X3848500Y6311502D01*
X3848307Y6313958D01*
X3846067Y6342421D01*
X3846066Y6342426D01*
X3845562Y6348831D01*
X3817571Y6445177D01*
X3801357Y6500989D01*
X3801355Y6500993D01*
X3799145Y6508601D01*
X3796115Y6513725D01*
X3786000Y6562570D01*
X3786000Y6881878D01*
X3782027Y6895409D01*
X3774129Y6896544D01*
X3634210Y6855893D01*
X3619779Y6849648D01*
X3604630Y6840689D01*
X3535814Y6823230D01*
X3476352Y6840690D01*
X3453601Y6854145D01*
X3445990Y6856356D01*
X3445988Y6856357D01*
X3358142Y6881878D01*
X3293831Y6900562D01*
X3287426Y6901066D01*
X3287421Y6901067D01*
X3258958Y6903307D01*
X3258950Y6903307D01*
X3256502Y6903500D01*
X2823498Y6903500D01*
X2821050Y6903307D01*
X2821042Y6903307D01*
X2792579Y6901067D01*
X2792574Y6901066D01*
X2786169Y6900562D01*
X2721858Y6881878D01*
X2634012Y6856357D01*
X2634010Y6856356D01*
X2626399Y6854145D01*
X2619576Y6850110D01*
X2619574Y6850109D01*
X2604137Y6840980D01*
X2535321Y6823522D01*
X2475863Y6840980D01*
X2460426Y6850109D01*
X2460424Y6850110D01*
X2453601Y6854145D01*
X2445990Y6856356D01*
X2445988Y6856357D01*
X2358142Y6881878D01*
X2293831Y6900562D01*
X2287426Y6901066D01*
X2287421Y6901067D01*
X2258958Y6903307D01*
X2258950Y6903307D01*
X2256502Y6903500D01*
X2150667Y6903500D01*
X2082546Y6923502D01*
X2061571Y6940405D01*
X1394719Y7607258D01*
X1387185Y7615537D01*
X1383072Y7622018D01*
X1333420Y7668644D01*
X1330579Y7671398D01*
X1310842Y7691135D01*
X1307645Y7693615D01*
X1298623Y7701320D01*
X1292462Y7707106D01*
X1266393Y7731586D01*
X1259447Y7735405D01*
X1259444Y7735407D01*
X1248638Y7741348D01*
X1232119Y7752199D01*
X1231655Y7752559D01*
X1216113Y7764614D01*
X1208844Y7767759D01*
X1208840Y7767762D01*
X1175535Y7782174D01*
X1164885Y7787391D01*
X1126132Y7808695D01*
X1106509Y7813733D01*
X1087806Y7820137D01*
X1076492Y7825033D01*
X1076491Y7825033D01*
X1069217Y7828181D01*
X1061394Y7829420D01*
X1061384Y7829423D01*
X1025548Y7835099D01*
X1013928Y7837505D01*
X978783Y7846528D01*
X978782Y7846528D01*
X971102Y7848500D01*
X950848Y7848500D01*
X931137Y7850051D01*
X918958Y7851980D01*
X911129Y7853220D01*
X903237Y7852474D01*
X867111Y7849059D01*
X855253Y7848500D01*
X270066Y7848500D01*
X201945Y7868502D01*
X155452Y7922158D01*
X145348Y7992432D01*
X174842Y8057012D01*
X234568Y8095396D01*
X240373Y8096873D01*
X246166Y8097474D01*
X413946Y8153450D01*
X564348Y8246522D01*
X689305Y8371697D01*
X766766Y8497361D01*
X778275Y8516032D01*
X778276Y8516034D01*
X782115Y8522262D01*
X837797Y8690139D01*
X840374Y8715285D01*
X848172Y8791402D01*
X848500Y8794600D01*
X4231500Y8794600D01*
X4231837Y8791354D01*
X4231837Y8791350D01*
X4240254Y8710233D01*
X4242474Y8688834D01*
X4298450Y8521054D01*
X4391522Y8370652D01*
X4516697Y8245695D01*
X4522927Y8241855D01*
X4522928Y8241854D01*
X4660090Y8157306D01*
X4667262Y8152885D01*
X4747005Y8126436D01*
X4828611Y8099368D01*
X4828613Y8099368D01*
X4835139Y8097203D01*
X4841975Y8096503D01*
X4841978Y8096502D01*
X4885031Y8092091D01*
X4939600Y8086500D01*
X5740400Y8086500D01*
X5743646Y8086837D01*
X5743650Y8086837D01*
X5839308Y8096762D01*
X5839312Y8096763D01*
X5846166Y8097474D01*
X5852702Y8099655D01*
X5852704Y8099655D01*
X5984806Y8143728D01*
X6013946Y8153450D01*
X6164348Y8246522D01*
X6289305Y8371697D01*
X6366766Y8497361D01*
X6378275Y8516032D01*
X6378276Y8516034D01*
X6382115Y8522262D01*
X6437797Y8690139D01*
X6440374Y8715285D01*
X6448172Y8791402D01*
X6448500Y8794600D01*
X6448500Y9867297D01*
X7890743Y9867297D01*
X7928268Y9582266D01*
X8004129Y9304964D01*
X8005813Y9301016D01*
X8067970Y9155293D01*
X8116923Y9040524D01*
X8264561Y8793839D01*
X8444313Y8569472D01*
X8494062Y8522262D01*
X8647263Y8376880D01*
X8652851Y8371577D01*
X8886317Y8203814D01*
X8890112Y8201805D01*
X8890113Y8201804D01*
X8911869Y8190285D01*
X9140392Y8069288D01*
X9410373Y7970489D01*
X9691264Y7909245D01*
X9719841Y7906996D01*
X9914282Y7891693D01*
X9914291Y7891693D01*
X9916739Y7891500D01*
X10072271Y7891500D01*
X10074407Y7891646D01*
X10074418Y7891646D01*
X10282548Y7905835D01*
X10282554Y7905836D01*
X10286825Y7906127D01*
X10291020Y7906996D01*
X10291022Y7906996D01*
X10427584Y7935277D01*
X10568342Y7964426D01*
X10839343Y8060393D01*
X11015147Y8151132D01*
X11091005Y8190285D01*
X11091006Y8190285D01*
X11094812Y8192250D01*
X11098313Y8194711D01*
X11098317Y8194713D01*
X11300793Y8337016D01*
X11330023Y8357559D01*
X11500560Y8516032D01*
X11537479Y8550339D01*
X11537481Y8550342D01*
X11540622Y8553260D01*
X11722713Y8775732D01*
X11872927Y9020858D01*
X11988483Y9284102D01*
X12067244Y9560594D01*
X12107751Y9845216D01*
X12107845Y9863049D01*
X12109235Y10128417D01*
X12109235Y10128424D01*
X12109257Y10132703D01*
X12107525Y10145863D01*
X12072292Y10413478D01*
X12071732Y10417734D01*
X12058053Y10467738D01*
X12018567Y10612072D01*
X11995871Y10695036D01*
X11977419Y10738296D01*
X11884763Y10955524D01*
X11884761Y10955528D01*
X11883077Y10959476D01*
X11735439Y11206161D01*
X11555687Y11430528D01*
X11347149Y11628423D01*
X11113683Y11796186D01*
X11091843Y11807750D01*
X11068654Y11820028D01*
X10859608Y11930712D01*
X10589627Y12029511D01*
X10308736Y12090755D01*
X10277685Y12093199D01*
X10085718Y12108307D01*
X10085709Y12108307D01*
X10083261Y12108500D01*
X9927729Y12108500D01*
X9925593Y12108354D01*
X9925582Y12108354D01*
X9717452Y12094165D01*
X9717446Y12094164D01*
X9713175Y12093873D01*
X9708980Y12093004D01*
X9708978Y12093004D01*
X9572416Y12064723D01*
X9431658Y12035574D01*
X9160657Y11939607D01*
X8905188Y11807750D01*
X8901687Y11805289D01*
X8901683Y11805287D01*
X8891594Y11798196D01*
X8669977Y11642441D01*
X8459378Y11446740D01*
X8277287Y11224268D01*
X8127073Y10979142D01*
X8125347Y10975209D01*
X8125346Y10975208D01*
X8063042Y10833275D01*
X8011517Y10715898D01*
X8010342Y10711771D01*
X8010341Y10711770D01*
X7985192Y10623483D01*
X7932756Y10439406D01*
X7913825Y10306389D01*
X7898485Y10198598D01*
X7892249Y10154784D01*
X7892227Y10150495D01*
X7892226Y10150488D01*
X7890794Y9877073D01*
X7890743Y9867297D01*
X6448500Y9867297D01*
X6448500Y10195400D01*
X6445823Y10221205D01*
X6438238Y10294308D01*
X6438237Y10294312D01*
X6437526Y10301166D01*
X6381550Y10468946D01*
X6288478Y10619348D01*
X6163303Y10744305D01*
X6157072Y10748146D01*
X6018968Y10833275D01*
X6018966Y10833276D01*
X6012738Y10837115D01*
X5852254Y10890345D01*
X5851389Y10890632D01*
X5851387Y10890632D01*
X5844861Y10892797D01*
X5838025Y10893497D01*
X5838022Y10893498D01*
X5794969Y10897909D01*
X5740400Y10903500D01*
X4939600Y10903500D01*
X4936354Y10903163D01*
X4936350Y10903163D01*
X4840692Y10893238D01*
X4840688Y10893237D01*
X4833834Y10892526D01*
X4827298Y10890345D01*
X4827296Y10890345D01*
X4695194Y10846272D01*
X4666054Y10836550D01*
X4515652Y10743478D01*
X4390695Y10618303D01*
X4297885Y10467738D01*
X4242203Y10299861D01*
X4231500Y10195400D01*
X4231500Y8794600D01*
X848500Y8794600D01*
X848500Y10195400D01*
X845823Y10221205D01*
X838238Y10294308D01*
X838237Y10294312D01*
X837526Y10301166D01*
X781550Y10468946D01*
X688478Y10619348D01*
X563303Y10744305D01*
X557072Y10748146D01*
X418968Y10833275D01*
X418966Y10833276D01*
X412738Y10837115D01*
X252254Y10890345D01*
X251389Y10890632D01*
X251387Y10890632D01*
X244861Y10892797D01*
X238025Y10893497D01*
X238022Y10893498D01*
X194969Y10897909D01*
X140400Y10903500D01*
X-660400Y10903500D01*
X-663646Y10903163D01*
X-663650Y10903163D01*
X-759308Y10893238D01*
X-759312Y10893237D01*
X-766166Y10892526D01*
X-772702Y10890345D01*
X-772704Y10890345D01*
X-904806Y10846272D01*
X-933946Y10836550D01*
X-1084348Y10743478D01*
X-1209305Y10618303D01*
X-1302115Y10467738D01*
X-1357797Y10299861D01*
X-1368500Y10195400D01*
X-1368500Y9961872D01*
X-1388502Y9893751D01*
X-1442158Y9847258D01*
X-1512432Y9837154D01*
X-1577012Y9866648D01*
X-1587694Y9877073D01*
X-1606849Y9898125D01*
X-1606858Y9898134D01*
X-1610330Y9901949D01*
X-1614381Y9905148D01*
X-1614385Y9905152D01*
X-1781586Y10037200D01*
X-1781590Y10037202D01*
X-1785641Y10040402D01*
X-1981211Y10148362D01*
X-1986080Y10150086D01*
X-1986084Y10150088D01*
X-2186913Y10221205D01*
X-2186917Y10221206D01*
X-2191788Y10222931D01*
X-2196881Y10223838D01*
X-2196884Y10223839D01*
X-2406627Y10261200D01*
X-2406633Y10261201D01*
X-2411716Y10262106D01*
X-2485548Y10263008D01*
X-2629919Y10264772D01*
X-2629921Y10264772D01*
X-2635089Y10264835D01*
X-2855909Y10231045D01*
X-3068244Y10161643D01*
X-3266393Y10058493D01*
X-3270526Y10055390D01*
X-3270529Y10055388D01*
X-3440900Y9927470D01*
X-3445035Y9924365D01*
X-3599371Y9762862D01*
X-3725257Y9578320D01*
X-3819312Y9375695D01*
X-3879011Y9160430D01*
X-3902749Y8938305D01*
X-3902452Y8933152D01*
X-3902452Y8933149D01*
X-3894649Y8797817D01*
X-3889890Y8715285D01*
X-3888753Y8710239D01*
X-3888752Y8710233D01*
X-3884223Y8690139D01*
X-3840778Y8497361D01*
X-3756734Y8290384D01*
X-3733031Y8251704D01*
X-3695393Y8190285D01*
X-3640013Y8099912D01*
X-3493750Y7931062D01*
X-3321874Y7788368D01*
X-3259978Y7752199D01*
X-3248555Y7745524D01*
X-3199831Y7693886D01*
X-3186760Y7624103D01*
X-3213491Y7558331D01*
X-3253945Y7524973D01*
X-3266393Y7518493D01*
X-3270526Y7515390D01*
X-3270529Y7515388D01*
X-3314731Y7482200D01*
X-3445035Y7384365D01*
X-3599371Y7222862D01*
X-3602285Y7218590D01*
X-3602286Y7218589D01*
X-3714905Y7053496D01*
X-3769816Y7008493D01*
X-3818993Y6998500D01*
X-3834856Y6998500D01*
X-3838846Y6997996D01*
X-3850680Y6997064D01*
X-3894889Y6995674D01*
X-3902505Y6993461D01*
X-3902507Y6993461D01*
X-3914348Y6990021D01*
X-3933707Y6986012D01*
X-3935017Y6985846D01*
X-3953797Y6983474D01*
X-3961163Y6980558D01*
X-3961169Y6980556D01*
X-3994902Y6967200D01*
X-4006132Y6963355D01*
X-4040983Y6953230D01*
X-4048593Y6951019D01*
X-4055416Y6946984D01*
X-4066034Y6940705D01*
X-4083787Y6932008D01*
X-4091432Y6928981D01*
X-4102617Y6924552D01*
X-4109032Y6919891D01*
X-4138388Y6898563D01*
X-4148305Y6892049D01*
X-4186362Y6869542D01*
X-4200683Y6855221D01*
X-4215716Y6842381D01*
X-4232107Y6830472D01*
X-4238098Y6823230D01*
X-4260298Y6796395D01*
X-4268288Y6787616D01*
X-4773123Y6282781D01*
X-4835435Y6248755D01*
X-4906250Y6253820D01*
X-4963086Y6296367D01*
X-4987794Y6361552D01*
X-4988353Y6368356D01*
X-5005148Y6572639D01*
X-5059569Y6789298D01*
X-5148646Y6994160D01*
X-5269986Y7181723D01*
X-5420330Y7346949D01*
X-5424381Y7350148D01*
X-5424385Y7350152D01*
X-5591586Y7482200D01*
X-5591590Y7482202D01*
X-5595641Y7485402D01*
X-5791211Y7593362D01*
X-5796080Y7595086D01*
X-5796084Y7595088D01*
X-5996913Y7666205D01*
X-5996917Y7666206D01*
X-6001788Y7667931D01*
X-6006881Y7668838D01*
X-6006884Y7668839D01*
X-6216627Y7706200D01*
X-6216633Y7706201D01*
X-6221716Y7707106D01*
X-6295548Y7708008D01*
X-6439919Y7709772D01*
X-6439921Y7709772D01*
X-6445089Y7709835D01*
X-6665909Y7676045D01*
X-6878244Y7606643D01*
X-6908557Y7590863D01*
X-7035130Y7524973D01*
X-7076393Y7503493D01*
X-7080526Y7500390D01*
X-7080529Y7500388D01*
X-7250900Y7372470D01*
X-7255035Y7369365D01*
X-7258607Y7365627D01*
X-7391465Y7226599D01*
X-7409371Y7207862D01*
X-7535257Y7023320D01*
X-7568818Y6951019D01*
X-7616541Y6848207D01*
X-7629312Y6820695D01*
X-7689011Y6605430D01*
X-7712749Y6383305D01*
X-7712452Y6378152D01*
X-7712452Y6378149D01*
X-7708609Y6311502D01*
X-7699890Y6160285D01*
X-7698753Y6155239D01*
X-7698752Y6155233D01*
X-7666547Y6012332D01*
X-7671083Y5941480D01*
X-7700369Y5895536D01*
X-7916764Y5679141D01*
X-7925050Y5671601D01*
X-7931529Y5667489D01*
X-7936954Y5661712D01*
X-7978154Y5617838D01*
X-7980909Y5614996D01*
X-8000646Y5595259D01*
X-8003126Y5592062D01*
X-8010829Y5583042D01*
X-8041097Y5550810D01*
X-8044916Y5543864D01*
X-8044918Y5543861D01*
X-8050859Y5533055D01*
X-8061710Y5516536D01*
X-8074125Y5500530D01*
X-8077270Y5493261D01*
X-8077273Y5493257D01*
X-8091685Y5459952D01*
X-8096902Y5449302D01*
X-8118206Y5410549D01*
X-8120177Y5402874D01*
X-8120177Y5402873D01*
X-8123244Y5390927D01*
X-8129648Y5372223D01*
X-8137692Y5353634D01*
X-8138931Y5345811D01*
X-8138934Y5345801D01*
X-8144610Y5309965D01*
X-8147016Y5298345D01*
X-8158011Y5255519D01*
X-8158011Y5235265D01*
X-8159562Y5215555D01*
X-8162731Y5195546D01*
X-8161985Y5187654D01*
X-8158570Y5151528D01*
X-8158011Y5139670D01*
X-8158011Y862268D01*
X-8158538Y851085D01*
X-8160213Y843592D01*
X-8159964Y835666D01*
X-8159964Y835665D01*
X-8158073Y775515D01*
X-8158011Y771556D01*
X-8158011Y743645D01*
X-8157514Y739711D01*
X-8157514Y739710D01*
X-8157506Y739645D01*
X-8156573Y727808D01*
X-8155184Y683612D01*
X-8149533Y664162D01*
X-8145524Y644801D01*
X-8145025Y640855D01*
X-8142985Y624704D01*
X-8140066Y617333D01*
X-8140066Y617331D01*
X-8126707Y583589D01*
X-8122862Y572359D01*
X-8112952Y538247D01*
X-8110529Y529908D01*
X-8106496Y523089D01*
X-8106494Y523084D01*
X-8100218Y512473D01*
X-8091523Y494725D01*
X-8084063Y475884D01*
X-8079401Y469468D01*
X-8079401Y469467D01*
X-8058075Y440114D01*
X-8051559Y430194D01*
X-8029053Y392139D01*
X-8014732Y377818D01*
X-8001892Y362785D01*
X-7989983Y346394D01*
X-7958098Y320017D01*
X-7955918Y318213D01*
X-7947137Y310223D01*
X-7405911Y-231004D01*
X-7371886Y-293316D01*
X-7376951Y-364132D01*
X-7402299Y-404577D01*
X-7402153Y-404695D01*
X-7403124Y-405894D01*
X-7403908Y-407145D01*
X-7405408Y-408715D01*
X-7411896Y-416727D01*
X-7531902Y-592649D01*
X-7537000Y-601623D01*
X-7626662Y-794783D01*
X-7630225Y-804470D01*
X-7685611Y-1004183D01*
X-7684088Y-1012607D01*
X-7671708Y-1016000D01*
X-5031656Y-1016000D01*
X-5018125Y-1012027D01*
X-5016820Y-1002947D01*
X-5058786Y-835875D01*
X-5062106Y-826124D01*
X-5110748Y-714253D01*
X-5119567Y-643806D01*
X-5088901Y-579775D01*
X-5028484Y-542487D01*
X-4995198Y-538011D01*
X-4205083Y-538011D01*
X-4136962Y-558013D01*
X-4115988Y-574916D01*
X-3890222Y-800682D01*
X-3856196Y-862994D01*
X-3857900Y-923448D01*
X-3879011Y-999570D01*
X-3879559Y-1004700D01*
X-3879560Y-1004704D01*
X-3883067Y-1037522D01*
X-3902749Y-1221695D01*
X-3902452Y-1226848D01*
X-3902452Y-1226851D01*
X-3896989Y-1321590D01*
X-3889890Y-1444715D01*
X-3888753Y-1449761D01*
X-3888752Y-1449767D01*
X-3872022Y-1524000D01*
X-3840778Y-1662639D01*
X-3756734Y-1869616D01*
X-3754035Y-1874020D01*
X-3646431Y-2049614D01*
X-3640013Y-2060088D01*
X-3493750Y-2228938D01*
X-3382652Y-2321173D01*
X-3328526Y-2366109D01*
X-3321874Y-2371632D01*
X-3292441Y-2388831D01*
X-3248555Y-2414476D01*
X-3199831Y-2466114D01*
X-3186760Y-2535897D01*
X-3213491Y-2601669D01*
X-3253945Y-2635027D01*
X-3266393Y-2641507D01*
X-3270526Y-2644610D01*
X-3270529Y-2644612D01*
X-3440347Y-2772115D01*
X-3445035Y-2775635D01*
X-3599371Y-2937138D01*
X-3602285Y-2941410D01*
X-3602286Y-2941411D01*
X-3624828Y-2974457D01*
X-3725257Y-3121680D01*
X-3750703Y-3176500D01*
X-3808335Y-3300658D01*
X-3819312Y-3324305D01*
X-3879011Y-3539570D01*
X-3902749Y-3761695D01*
X-3902452Y-3766853D01*
X-3902578Y-3772024D01*
X-3904086Y-3771987D01*
X-3918589Y-3834482D01*
X-3969480Y-3883986D01*
X-4039056Y-3898117D01*
X-4105227Y-3872389D01*
X-4117426Y-3861669D01*
X-4561348Y-3417747D01*
X-4568888Y-3409461D01*
X-4573000Y-3402982D01*
X-4590253Y-3386780D01*
X-4622651Y-3356357D01*
X-4625493Y-3353602D01*
X-4645230Y-3333865D01*
X-4648427Y-3331385D01*
X-4657449Y-3323680D01*
X-4683900Y-3298841D01*
X-4689679Y-3293414D01*
X-4696625Y-3289595D01*
X-4696628Y-3289593D01*
X-4707434Y-3283652D01*
X-4723953Y-3272801D01*
X-4724417Y-3272441D01*
X-4739959Y-3260386D01*
X-4747228Y-3257241D01*
X-4747232Y-3257238D01*
X-4780537Y-3242826D01*
X-4791187Y-3237609D01*
X-4829940Y-3216305D01*
X-4849563Y-3211267D01*
X-4868266Y-3204863D01*
X-4879580Y-3199967D01*
X-4879581Y-3199967D01*
X-4886855Y-3196819D01*
X-4894678Y-3195580D01*
X-4894688Y-3195577D01*
X-4930524Y-3189901D01*
X-4942144Y-3187495D01*
X-4977289Y-3178472D01*
X-4977290Y-3178472D01*
X-4984970Y-3176500D01*
X-5005224Y-3176500D01*
X-5024935Y-3174949D01*
X-5037114Y-3173020D01*
X-5044943Y-3171780D01*
X-5052835Y-3172526D01*
X-5052837Y-3172526D01*
X-5062931Y-3173480D01*
X-5132631Y-3159977D01*
X-5180579Y-3116479D01*
X-5267178Y-2982617D01*
X-5267180Y-2982614D01*
X-5269986Y-2978277D01*
X-5420330Y-2813051D01*
X-5424381Y-2809852D01*
X-5424385Y-2809848D01*
X-5591586Y-2677800D01*
X-5591590Y-2677798D01*
X-5595641Y-2674598D01*
X-5604899Y-2669487D01*
X-5620830Y-2660693D01*
X-5637431Y-2651529D01*
X-5687402Y-2601097D01*
X-5702174Y-2531654D01*
X-5677058Y-2465248D01*
X-5649706Y-2438641D01*
X-5474672Y-2313792D01*
X-5466800Y-2307139D01*
X-5315948Y-2156812D01*
X-5309270Y-2148965D01*
X-5184997Y-1976020D01*
X-5179687Y-1967183D01*
X-5085330Y-1776267D01*
X-5081531Y-1766672D01*
X-5019623Y-1562910D01*
X-5017445Y-1552837D01*
X-5016014Y-1541962D01*
X-5018225Y-1527778D01*
X-5031383Y-1524000D01*
X-7666775Y-1524000D01*
X-7680306Y-1527973D01*
X-7681743Y-1537966D01*
X-7651435Y-1672446D01*
X-7648355Y-1682275D01*
X-7568230Y-1879603D01*
X-7563587Y-1888794D01*
X-7452306Y-2070388D01*
X-7446223Y-2078699D01*
X-7306787Y-2239667D01*
X-7299420Y-2246883D01*
X-7135566Y-2382916D01*
X-7127119Y-2388831D01*
X-7058031Y-2429203D01*
X-7009307Y-2480842D01*
X-6996236Y-2550625D01*
X-7022967Y-2616396D01*
X-7063416Y-2649752D01*
X-7076393Y-2656507D01*
X-7080526Y-2659610D01*
X-7080529Y-2659612D01*
X-7245952Y-2783815D01*
X-7255035Y-2790635D01*
X-7320654Y-2859301D01*
X-7391465Y-2933401D01*
X-7409371Y-2952138D01*
X-7412285Y-2956410D01*
X-7412286Y-2956411D01*
X-7427202Y-2978277D01*
X-7535257Y-3136680D01*
X-7573989Y-3220121D01*
X-7626853Y-3334008D01*
X-7629312Y-3339305D01*
X-7689011Y-3554570D01*
X-7712749Y-3776695D01*
X-7712452Y-3781848D01*
X-7712452Y-3781851D01*
X-7706563Y-3883986D01*
X-7699890Y-3999715D01*
X-7698753Y-4004761D01*
X-7698752Y-4004767D01*
X-7679084Y-4092039D01*
X-7650778Y-4217639D01*
X-7566734Y-4424616D01*
X-7450013Y-4615088D01*
X-7303750Y-4783938D01*
X-7299770Y-4787242D01*
X-7295019Y-4791187D01*
X-7255384Y-4850090D01*
X-7253887Y-4921071D01*
X-7291003Y-4981593D01*
X-7331275Y-5006112D01*
X-7420206Y-5039451D01*
X-7446705Y-5049385D01*
X-7563261Y-5136739D01*
X-7650615Y-5253295D01*
X-7701745Y-5389684D01*
X-7708500Y-5451866D01*
X-7708500Y-7248134D01*
X-7701745Y-7310316D01*
X-7650615Y-7446705D01*
X-7563261Y-7563261D01*
X-7446705Y-7650615D01*
X-7310316Y-7701745D01*
X-7248134Y-7708500D01*
X-6983708Y-7708500D01*
X-6915587Y-7728502D01*
X-6875256Y-7770359D01*
X-6854542Y-7805384D01*
X-6840221Y-7819705D01*
X-6827381Y-7834738D01*
X-6815472Y-7851129D01*
X-6809366Y-7856180D01*
X-6781395Y-7879320D01*
X-6772616Y-7887310D01*
X-2767679Y-11892247D01*
X-2760135Y-11900537D01*
X-2756022Y-11907018D01*
X-2750245Y-11912443D01*
X-2706355Y-11953658D01*
X-2703513Y-11956413D01*
X-2683791Y-11976135D01*
X-2680667Y-11978558D01*
X-2680663Y-11978562D01*
X-2680598Y-11978612D01*
X-2671577Y-11986317D01*
X-2639343Y-12016586D01*
X-2632395Y-12020405D01*
X-2632393Y-12020407D01*
X-2621590Y-12026346D01*
X-2605063Y-12037202D01*
X-2595324Y-12044757D01*
X-2595322Y-12044758D01*
X-2589062Y-12049614D01*
X-2548482Y-12067174D01*
X-2537834Y-12072391D01*
X-2499082Y-12093695D01*
X-2491406Y-12095666D01*
X-2491403Y-12095667D01*
X-2479460Y-12098733D01*
X-2460756Y-12105137D01*
X-2452984Y-12108500D01*
X-2442167Y-12113181D01*
X-2434344Y-12114420D01*
X-2434334Y-12114423D01*
X-2398498Y-12120099D01*
X-2386878Y-12122505D01*
X-2351733Y-12131528D01*
X-2344052Y-12133500D01*
X-2323798Y-12133500D01*
X-2304088Y-12135051D01*
X-2284079Y-12138220D01*
X-2276187Y-12137474D01*
X-2240061Y-12134059D01*
X-2228203Y-12133500D01*
X327462Y-12133500D01*
X395583Y-12153502D01*
X442076Y-12207158D01*
X446986Y-12219624D01*
X473450Y-12298946D01*
X566522Y-12449348D01*
X691697Y-12574305D01*
X697927Y-12578145D01*
X697928Y-12578146D01*
X806314Y-12644956D01*
X842262Y-12667115D01*
X883497Y-12680792D01*
X1003611Y-12720632D01*
X1003613Y-12720632D01*
X1010139Y-12722797D01*
X1016975Y-12723497D01*
X1016978Y-12723498D01*
X1060031Y-12727909D01*
X1114600Y-12733500D01*
X1787906Y-12733500D01*
X1856027Y-12753502D01*
X1877001Y-12770405D01*
X1883001Y-12776405D01*
X1917027Y-12838717D01*
X1911962Y-12909532D01*
X1869415Y-12966368D01*
X1802895Y-12991179D01*
X1793906Y-12991500D01*
X-12865500Y-12991500D01*
X-12933621Y-12971498D01*
X-12980114Y-12917842D01*
X-12991500Y-12865500D01*
X-12991500Y-10132703D01*
X-12109257Y-10132703D01*
X-12108698Y-10136947D01*
X-12108698Y-10136951D01*
X-12100147Y-10201903D01*
X-12071732Y-10417734D01*
X-11995871Y-10695036D01*
X-11994187Y-10698984D01*
X-11921739Y-10868834D01*
X-11883077Y-10959476D01*
X-11735439Y-11206161D01*
X-11555687Y-11430528D01*
X-11347149Y-11628423D01*
X-11113683Y-11796186D01*
X-11109888Y-11798195D01*
X-11109887Y-11798196D01*
X-11088131Y-11809715D01*
X-10859608Y-11930712D01*
X-10789377Y-11956413D01*
X-10624946Y-12016586D01*
X-10589627Y-12029511D01*
X-10308736Y-12090755D01*
X-10280159Y-12093004D01*
X-10085718Y-12108307D01*
X-10085709Y-12108307D01*
X-10083261Y-12108500D01*
X-9927729Y-12108500D01*
X-9925593Y-12108354D01*
X-9925582Y-12108354D01*
X-9717452Y-12094165D01*
X-9717446Y-12094164D01*
X-9713175Y-12093873D01*
X-9708980Y-12093004D01*
X-9708978Y-12093004D01*
X-9499455Y-12049614D01*
X-9431658Y-12035574D01*
X-9160657Y-11939607D01*
X-8905188Y-11807750D01*
X-8901687Y-11805289D01*
X-8901683Y-11805287D01*
X-8787583Y-11725096D01*
X-8669977Y-11642441D01*
X-8459378Y-11446740D01*
X-8277287Y-11224268D01*
X-8127073Y-10979142D01*
X-8077303Y-10865764D01*
X-8013243Y-10719830D01*
X-8011517Y-10715898D01*
X-8007288Y-10701054D01*
X-7933932Y-10443534D01*
X-7932756Y-10439406D01*
X-7892249Y-10154784D01*
X-7892155Y-10136951D01*
X-7890765Y-9871583D01*
X-7890765Y-9871576D01*
X-7890743Y-9867297D01*
X-7893993Y-9842606D01*
X-7927708Y-9586522D01*
X-7928268Y-9582266D01*
X-8004129Y-9304964D01*
X-8078472Y-9130671D01*
X-8115237Y-9044476D01*
X-8115239Y-9044472D01*
X-8116923Y-9040524D01*
X-8264561Y-8793839D01*
X-8444313Y-8569472D01*
X-8611671Y-8410655D01*
X-8649742Y-8374527D01*
X-8649745Y-8374525D01*
X-8652851Y-8371577D01*
X-8861704Y-8221500D01*
X-8882828Y-8206321D01*
X-8882829Y-8206320D01*
X-8886317Y-8203814D01*
X-8908157Y-8192250D01*
X-8952498Y-8168773D01*
X-9140392Y-8069288D01*
X-9383478Y-7980331D01*
X-9406342Y-7971964D01*
X-9406344Y-7971963D01*
X-9410373Y-7970489D01*
X-9691264Y-7909245D01*
X-9722315Y-7906801D01*
X-9914282Y-7891693D01*
X-9914291Y-7891693D01*
X-9916739Y-7891500D01*
X-10072271Y-7891500D01*
X-10074407Y-7891646D01*
X-10074418Y-7891646D01*
X-10282548Y-7905835D01*
X-10282554Y-7905836D01*
X-10286825Y-7906127D01*
X-10291020Y-7906996D01*
X-10291022Y-7906996D01*
X-10427584Y-7935277D01*
X-10568342Y-7964426D01*
X-10839343Y-8060393D01*
X-10843152Y-8062359D01*
X-10965218Y-8125362D01*
X-11094812Y-8192250D01*
X-11098313Y-8194711D01*
X-11098317Y-8194713D01*
X-11204789Y-8269543D01*
X-11330023Y-8357559D01*
X-11540622Y-8553260D01*
X-11722713Y-8775732D01*
X-11872927Y-9020858D01*
X-11874653Y-9024791D01*
X-11874654Y-9024792D01*
X-11928350Y-9147115D01*
X-11988483Y-9284102D01*
X-12067244Y-9560594D01*
X-12070328Y-9582266D01*
X-12105208Y-9827351D01*
X-12107751Y-9845216D01*
X-12107773Y-9849505D01*
X-12107774Y-9849512D01*
X-12109181Y-10118158D01*
X-12109257Y-10132703D01*
X-12991500Y-10132703D01*
X-12991500Y9867297D01*
X-12109257Y9867297D01*
X-12071732Y9582266D01*
X-11995871Y9304964D01*
X-11994187Y9301016D01*
X-11932030Y9155293D01*
X-11883077Y9040524D01*
X-11735439Y8793839D01*
X-11555687Y8569472D01*
X-11505938Y8522262D01*
X-11352737Y8376880D01*
X-11347149Y8371577D01*
X-11113683Y8203814D01*
X-11109888Y8201805D01*
X-11109887Y8201804D01*
X-11088131Y8190285D01*
X-10859608Y8069288D01*
X-10589627Y7970489D01*
X-10308736Y7909245D01*
X-10280159Y7906996D01*
X-10085718Y7891693D01*
X-10085709Y7891693D01*
X-10083261Y7891500D01*
X-9927729Y7891500D01*
X-9925593Y7891646D01*
X-9925582Y7891646D01*
X-9717452Y7905835D01*
X-9717446Y7905836D01*
X-9713175Y7906127D01*
X-9708980Y7906996D01*
X-9708978Y7906996D01*
X-9572416Y7935277D01*
X-9431658Y7964426D01*
X-9160657Y8060393D01*
X-8984853Y8151132D01*
X-8908995Y8190285D01*
X-8908994Y8190285D01*
X-8905188Y8192250D01*
X-8901687Y8194711D01*
X-8901683Y8194713D01*
X-8699207Y8337016D01*
X-8669977Y8357559D01*
X-8499440Y8516032D01*
X-8462521Y8550339D01*
X-8462519Y8550342D01*
X-8459378Y8553260D01*
X-8277287Y8775732D01*
X-8127073Y9020858D01*
X-8011517Y9284102D01*
X-7932756Y9560594D01*
X-7892249Y9845216D01*
X-7892155Y9863049D01*
X-7890765Y10128417D01*
X-7890765Y10128424D01*
X-7890743Y10132703D01*
X-7892475Y10145863D01*
X-7927708Y10413478D01*
X-7928268Y10417734D01*
X-7941947Y10467738D01*
X-7981433Y10612072D01*
X-8004129Y10695036D01*
X-8022581Y10738296D01*
X-8115237Y10955524D01*
X-8115239Y10955528D01*
X-8116923Y10959476D01*
X-8264561Y11206161D01*
X-8444313Y11430528D01*
X-8652851Y11628423D01*
X-8886317Y11796186D01*
X-8908157Y11807750D01*
X-8931346Y11820028D01*
X-9140392Y11930712D01*
X-9410373Y12029511D01*
X-9691264Y12090755D01*
X-9722315Y12093199D01*
X-9914282Y12108307D01*
X-9914291Y12108307D01*
X-9916739Y12108500D01*
X-10072271Y12108500D01*
X-10074407Y12108354D01*
X-10074418Y12108354D01*
X-10282548Y12094165D01*
X-10282554Y12094164D01*
X-10286825Y12093873D01*
X-10291020Y12093004D01*
X-10291022Y12093004D01*
X-10427584Y12064723D01*
X-10568342Y12035574D01*
X-10839343Y11939607D01*
X-11094812Y11807750D01*
X-11098313Y11805289D01*
X-11098317Y11805287D01*
X-11108406Y11798196D01*
X-11330023Y11642441D01*
X-11540622Y11446740D01*
X-11722713Y11224268D01*
X-11872927Y10979142D01*
X-11874653Y10975209D01*
X-11874654Y10975208D01*
X-11936958Y10833275D01*
X-11988483Y10715898D01*
X-11989658Y10711771D01*
X-11989659Y10711770D01*
X-12014808Y10623483D01*
X-12067244Y10439406D01*
X-12086175Y10306389D01*
X-12101515Y10198598D01*
X-12107751Y10154784D01*
X-12107773Y10150495D01*
X-12107774Y10150488D01*
X-12109206Y9877073D01*
X-12109257Y9867297D01*
X-12991500Y9867297D01*
X-12991500Y12865500D01*
X-12971498Y12933621D01*
X-12917842Y12980114D01*
X-12865500Y12991500D01*
X12865500Y12991500D01*
X12933621Y12971498D01*
G37*
%TD.AperFunction*%
%TA.AperFunction,Conductor*%
G36*
X698621Y-7463502D02*
G01*
X745114Y-7517158D01*
X756500Y-7569500D01*
X756500Y-7638134D01*
X763255Y-7700316D01*
X814385Y-7836705D01*
X901739Y-7953261D01*
X1018295Y-8040615D01*
X1026703Y-8043767D01*
X1034575Y-8048077D01*
X1033272Y-8050457D01*
X1078804Y-8084664D01*
X1103501Y-8151227D01*
X1088291Y-8220575D01*
X1038003Y-8270691D01*
X1030903Y-8273933D01*
X1026701Y-8276234D01*
X1018295Y-8279385D01*
X901739Y-8366739D01*
X814385Y-8483295D01*
X763255Y-8619684D01*
X756500Y-8681866D01*
X756500Y-10315572D01*
X736498Y-10383693D01*
X702112Y-10417495D01*
X702612Y-10418125D01*
X696880Y-10422668D01*
X690652Y-10426522D01*
X565695Y-10551697D01*
X561855Y-10557927D01*
X561854Y-10557928D01*
X479891Y-10690897D01*
X472885Y-10702262D01*
X467058Y-10719830D01*
X447045Y-10780167D01*
X406614Y-10838527D01*
X341050Y-10865764D01*
X327452Y-10866500D01*
X-1949428Y-10866500D01*
X-2017549Y-10846498D01*
X-2038523Y-10829595D01*
X-2420023Y-10448095D01*
X-2454049Y-10385783D01*
X-2448984Y-10314968D01*
X-2406437Y-10258132D01*
X-2339917Y-10233321D01*
X-2330928Y-10233000D01*
X-1645331Y-10232999D01*
X-1638510Y-10232629D01*
X-1587648Y-10227105D01*
X-1572396Y-10223479D01*
X-1451946Y-10178324D01*
X-1436351Y-10169786D01*
X-1334276Y-10093285D01*
X-1321715Y-10080724D01*
X-1245214Y-9978649D01*
X-1236676Y-9963054D01*
X-1191522Y-9842606D01*
X-1187895Y-9827351D01*
X-1182369Y-9776486D01*
X-1182000Y-9769672D01*
X-1182000Y-9147115D01*
X-1186475Y-9131876D01*
X-1187865Y-9130671D01*
X-1195548Y-9129000D01*
X-2668000Y-9129000D01*
X-2736121Y-9108998D01*
X-2782614Y-9055342D01*
X-2794000Y-9003000D01*
X-2794000Y-8747000D01*
X-2773998Y-8678879D01*
X-2720342Y-8632386D01*
X-2668000Y-8621000D01*
X-1200116Y-8621000D01*
X-1184877Y-8616525D01*
X-1183672Y-8615135D01*
X-1182001Y-8607452D01*
X-1182001Y-7980331D01*
X-1182371Y-7973510D01*
X-1187895Y-7922648D01*
X-1191521Y-7907396D01*
X-1236676Y-7786946D01*
X-1245214Y-7771351D01*
X-1321715Y-7669276D01*
X-1332396Y-7658595D01*
X-1366422Y-7596283D01*
X-1361357Y-7525468D01*
X-1318810Y-7468632D01*
X-1252290Y-7443821D01*
X-1243301Y-7443500D01*
X630500Y-7443500D01*
X698621Y-7463502D01*
G37*
%TD.AperFunction*%
%TA.AperFunction,Conductor*%
G36*
X6092416Y-834027D02*
G01*
X6099909Y-835702D01*
X6107834Y-835453D01*
X6107835Y-835453D01*
X6130135Y-834752D01*
X6164289Y-833678D01*
X6233003Y-851530D01*
X6281159Y-903698D01*
X6293466Y-973620D01*
X6289664Y-993288D01*
X6282370Y-1019588D01*
X6282369Y-1019596D01*
X6280989Y-1024570D01*
X6257251Y-1246695D01*
X6257548Y-1251848D01*
X6257548Y-1251851D01*
X6268960Y-1449767D01*
X6270110Y-1469715D01*
X6271247Y-1474761D01*
X6271248Y-1474767D01*
X6289737Y-1556807D01*
X6319222Y-1687639D01*
X6403266Y-1894616D01*
X6441542Y-1957077D01*
X6498249Y-2049614D01*
X6519987Y-2085088D01*
X6666250Y-2253938D01*
X6838126Y-2396632D01*
X6884805Y-2423909D01*
X6911445Y-2439476D01*
X6960169Y-2491114D01*
X6973240Y-2560897D01*
X6946509Y-2626669D01*
X6906055Y-2660027D01*
X6893607Y-2666507D01*
X6889474Y-2669610D01*
X6889471Y-2669612D01*
X6797645Y-2738557D01*
X6792815Y-2742009D01*
X6704733Y-2801870D01*
X6677249Y-2820548D01*
X6571400Y-2940610D01*
X6565526Y-2952138D01*
X6563494Y-2956127D01*
X6555314Y-2969930D01*
X6542316Y-2988984D01*
X6434743Y-3146680D01*
X6397460Y-3227000D01*
X6343013Y-3344297D01*
X6340688Y-3349305D01*
X6280989Y-3564570D01*
X6257251Y-3786695D01*
X6257548Y-3791848D01*
X6257548Y-3791851D01*
X6268719Y-3985590D01*
X6270110Y-4009715D01*
X6271247Y-4014761D01*
X6271248Y-4014767D01*
X6286933Y-4084363D01*
X6319222Y-4227639D01*
X6340302Y-4279553D01*
X6401010Y-4429059D01*
X6403266Y-4434616D01*
X6519987Y-4625088D01*
X6666250Y-4793938D01*
X6732629Y-4849047D01*
X6772262Y-4907947D01*
X6773760Y-4978928D01*
X6736646Y-5039451D01*
X6672702Y-5070300D01*
X6652142Y-5071989D01*
X4799000Y-5071989D01*
X4730879Y-5051987D01*
X4684386Y-4998331D01*
X4673000Y-4945989D01*
X4673000Y-4772115D01*
X4668525Y-4756876D01*
X4667135Y-4755671D01*
X4659452Y-4754000D01*
X3449500Y-4754000D01*
X3381379Y-4733998D01*
X3334886Y-4680342D01*
X3323500Y-4628000D01*
X3323500Y-3790345D01*
X3343502Y-3722224D01*
X3354986Y-3707020D01*
X3392582Y-3664376D01*
X3392582Y-3664375D01*
X3397824Y-3658430D01*
X3443031Y-3569707D01*
X3466891Y-3522880D01*
X3466892Y-3522878D01*
X3470490Y-3515816D01*
X3505406Y-3359611D01*
X3505149Y-3351428D01*
X3505200Y-3351230D01*
X3505903Y-3343797D01*
X3507102Y-3343910D01*
X3523002Y-3282713D01*
X3575172Y-3234558D01*
X3645094Y-3222253D01*
X3657869Y-3224351D01*
X3670047Y-3227000D01*
X3705500Y-3227000D01*
X3773621Y-3247002D01*
X3820114Y-3300658D01*
X3831500Y-3353000D01*
X3831500Y-4227885D01*
X3835975Y-4243124D01*
X3837365Y-4244329D01*
X3845048Y-4246000D01*
X4654884Y-4246000D01*
X4670123Y-4241525D01*
X4671328Y-4240135D01*
X4672999Y-4232452D01*
X4672999Y-3977905D01*
X4672662Y-3971386D01*
X4662743Y-3875794D01*
X4659851Y-3862400D01*
X4608412Y-3708216D01*
X4602239Y-3695038D01*
X4516937Y-3557193D01*
X4507901Y-3545792D01*
X4393171Y-3431261D01*
X4381760Y-3422249D01*
X4324218Y-3386780D01*
X4276725Y-3334008D01*
X4265301Y-3263937D01*
X4291449Y-3201431D01*
X4295376Y-3196459D01*
X4378912Y-3060937D01*
X4385056Y-3047759D01*
X4435315Y-2896234D01*
X4438181Y-2882868D01*
X4447672Y-2790230D01*
X4448000Y-2783815D01*
X4448000Y-2772115D01*
X4443525Y-2756876D01*
X4442135Y-2755671D01*
X4434452Y-2754000D01*
X3674615Y-2754000D01*
X3659376Y-2758475D01*
X3658171Y-2759865D01*
X3656500Y-2767548D01*
X3656500Y-2924845D01*
X3636498Y-2992966D01*
X3582842Y-3039459D01*
X3512568Y-3049563D01*
X3447988Y-3020069D01*
X3422046Y-2988984D01*
X3415650Y-2978168D01*
X3374246Y-2908158D01*
X3210405Y-2744317D01*
X3176379Y-2682005D01*
X3173500Y-2655222D01*
X3173500Y-2372000D01*
X3193502Y-2303879D01*
X3247158Y-2257386D01*
X3299500Y-2246000D01*
X4440209Y-2246000D01*
X4508330Y-2266002D01*
X4514250Y-2270050D01*
X4543248Y-2291118D01*
X4549276Y-2293802D01*
X4549278Y-2293803D01*
X4711681Y-2366109D01*
X4717712Y-2368794D01*
X4811113Y-2388647D01*
X4898056Y-2407128D01*
X4898061Y-2407128D01*
X4904513Y-2408500D01*
X5095487Y-2408500D01*
X5101939Y-2407128D01*
X5101944Y-2407128D01*
X5188887Y-2388647D01*
X5282288Y-2368794D01*
X5288319Y-2366109D01*
X5450722Y-2293803D01*
X5450724Y-2293802D01*
X5456752Y-2291118D01*
X5611253Y-2178866D01*
X5615675Y-2173955D01*
X5734621Y-2041852D01*
X5734622Y-2041851D01*
X5739040Y-2036944D01*
X5834527Y-1871556D01*
X5893542Y-1689928D01*
X5894347Y-1682275D01*
X5912814Y-1506565D01*
X5913504Y-1500000D01*
X5903623Y-1405985D01*
X5894232Y-1316635D01*
X5894232Y-1316633D01*
X5893542Y-1310072D01*
X5834527Y-1128444D01*
X5773360Y-1022500D01*
X5756622Y-953505D01*
X5779842Y-886413D01*
X5835649Y-842526D01*
X5882479Y-833500D01*
X6081233Y-833500D01*
X6092416Y-834027D01*
G37*
%TD.AperFunction*%
%TA.AperFunction,Conductor*%
G36*
X1736121Y571498D02*
G01*
X1782614Y517842D01*
X1794000Y465500D01*
X1794000Y-65500D01*
X1773998Y-133621D01*
X1720342Y-180114D01*
X1668000Y-191500D01*
X1412000Y-191500D01*
X1343879Y-171498D01*
X1297386Y-117842D01*
X1286000Y-65500D01*
X1286000Y465500D01*
X1306002Y533621D01*
X1359658Y580114D01*
X1412000Y591500D01*
X1668000Y591500D01*
X1736121Y571498D01*
G37*
%TD.AperFunction*%
%TA.AperFunction,Conductor*%
G36*
X493382Y1993312D02*
G01*
X550218Y1950765D01*
X570347Y1910410D01*
X591951Y1836050D01*
X591951Y1765744D01*
X563988Y1669491D01*
X559438Y1653831D01*
X556500Y1616502D01*
X556500Y1183498D01*
X559438Y1146169D01*
X561232Y1139993D01*
X561233Y1139989D01*
X591951Y1034256D01*
X591951Y963951D01*
X561732Y859937D01*
X559430Y847333D01*
X557751Y825999D01*
X532466Y759657D01*
X475328Y717517D01*
X404478Y712958D01*
X343044Y746789D01*
X45894Y1043939D01*
X11868Y1106251D01*
X8989Y1133034D01*
X8989Y1560895D01*
X28991Y1629016D01*
X45894Y1649990D01*
X360255Y1964351D01*
X422567Y1998377D01*
X493382Y1993312D01*
G37*
%TD.AperFunction*%
%TD*%
M02*
